<svg xmlns="http://www.w3.org/2000/svg" viewBox="0 0 281.53 189"><defs><style>.cls-1{fill:#fff;}</style></defs><title>bluetooth</title><g id="Layer_2" data-name="Layer 2"><g id="Layer_1-2" data-name="Layer 1"><g id="Bluebooth"><path class="cls-1" d="M255,42.76A6.5,6.5,0,0,0,250.53,54a54.56,54.56,0,0,1,0,81A6.49,6.49,0,0,0,255,146.25h0a6.53,6.53,0,0,0,4.44-1.74c1.58-1.45,3.1-3,4.52-4.52a67.6,67.6,0,0,0-4.51-95.47A6.5,6.5,0,0,0,255,42.76Z"/><path class="cls-1" d="M134.12,108.38v74.13a6.49,6.49,0,0,0,6.5,6.49h0a6.43,6.43,0,0,0,4.59-1.9l48-48a6.5,6.5,0,0,0,0-9.19,5.22,5.22,0,0,0-.43-.39l-42-35,42-35a6.51,6.51,0,0,0,2.33-4.7h0a6.52,6.52,0,0,0-1.9-4.89l-48-48A6.45,6.45,0,0,0,140.63,0h0A6.41,6.41,0,0,0,136,1.9a6.52,6.52,0,0,0-1.91,4.6V80.63L96.79,49.51a6.51,6.51,0,0,0-8.34,10l42,35-42,35a6.5,6.5,0,0,0-.82,9.15,6.5,6.5,0,0,0,9.15.83ZM179,134.94l-31.88,31.87V108.39M179,54.07,147.12,80.63V22.2"/><path class="cls-1" d="M222.44,65.12a6.5,6.5,0,0,0-4.64,11,5.33,5.33,0,0,0,.42.4,24,24,0,0,1,1.87,34,24.71,24.71,0,0,1-1.84,1.85,6.5,6.5,0,0,0,8.89,9.49,37,37,0,0,0,2.52-52.24v.05l-2.57-2.6a6.49,6.49,0,0,0-4.58-2Z"/></g><path class="cls-1" d="M26.52,39.75a6.53,6.53,0,0,0-4.44,1.75c-1.57,1.44-3.09,3-4.52,4.52a67.67,67.67,0,0,0,4.51,95.47A6.5,6.5,0,1,0,31,132c-1.36-1.23-2.69-2.57-3.94-3.95A54.62,54.62,0,0,1,31,51,6.5,6.5,0,0,0,33,46.25a6.52,6.52,0,0,0-6.5-6.5Z"/><path class="cls-1" d="M51.84,116.33l2.57,2.6a6.5,6.5,0,0,0,9.29-9.09,5.11,5.11,0,0,0-.42-.39,24,24,0,0,1-1.87-34,22.93,22.93,0,0,1,1.84-1.85A6.5,6.5,0,0,0,59,62.4a6.54,6.54,0,0,0-4.66,1.74,37.09,37.09,0,0,0-2.52,52.24Z"/></g></g></svg>