<svg xmlns="http://www.w3.org/2000/svg" viewBox="0 0 477.06 458.75"><defs><style>.cls-1{fill:#5facff;}.cls-1,.cls-9{opacity:0.5;}.cls-2{opacity:0.1;}.cls-3,.cls-4{fill:#2080fb;}.cls-16,.cls-3,.cls-8{opacity:0.25;}.cls-12,.cls-5,.cls-8{fill:#0c2043;}.cls-18,.cls-6,.cls-9{fill:#fff;}.cls-7{fill:#0f2c56;}.cls-10,.cls-24{fill:#e0e0e0;}.cls-11{fill:#f0f0f0;}.cls-12,.cls-18,.cls-26{opacity:0.2;}.cls-13{fill:#153d6d;}.cls-14{fill:#dfe5ea;}.cls-15{fill:#263238;}.cls-17{fill:#ebebeb;}.cls-19{fill:#455a64;}.cls-20,.cls-22{opacity:0.4;}.cls-21{fill:#fafafa;}.cls-23{fill:#37474f;}.cls-24{font-size:3.1px;font-family:Apercu-Regular, Apercu;}.cls-25{opacity:0.3;}.cls-27{fill:#298fff;}</style></defs><g id="Layer_2" data-name="Layer 2"><g id="calculator"><ellipse id="Floor" class="cls-1" cx="238.53" cy="318.62" rx="238.53" ry="140.13"/><path id="Shadow" class="cls-2" d="M271.76,413.6a6.52,6.52,0,0,0,3.31-.8l16.71-9.65,15.66,9.05a6.62,6.62,0,0,0,3.31.79,6.54,6.54,0,0,0,3.31-.8l10.53-6.08a2.7,2.7,0,0,0,0-5l-14.66-8.47,15.7-9.06a2.7,2.7,0,0,0,0-5L312.5,371a7.27,7.27,0,0,0-6.63,0l-16.7,9.64-15.55-9a7.35,7.35,0,0,0-6.63,0l-10.53,6.08a2.7,2.7,0,0,0,0,5L271,391.17l-15.7,9.06a2.71,2.71,0,0,0,0,5l13.13,7.58A6.53,6.53,0,0,0,271.76,413.6Z"/><path id="Shadow-2" data-name="Shadow" class="cls-2" d="M232.19,366.76a6.44,6.44,0,0,0,3.31-.81L246,359.88a2.7,2.7,0,0,0,0-5l-51-29.43a7.27,7.27,0,0,0-6.63,0l-10.53,6.07a2.71,2.71,0,0,0,0,5l51,29.43A6.55,6.55,0,0,0,232.19,366.76Z"/><path id="Shadow-3" data-name="Shadow" class="cls-2" d="M386.09,382.71l68.52-39.56c2.39-1.38,2.39-3.62,0-5L317,258.7a9.57,9.57,0,0,0-8.66,0l-68.48,39.58c-2.39,1.38-2.39,3.62,0,5l137.58,79.43A9.57,9.57,0,0,0,386.09,382.71Z"/><ellipse id="Shadow-4" data-name="Shadow" class="cls-3" cx="133.78" cy="389.52" rx="61.38" ry="37"/><path id="Shadow-5" data-name="Shadow" class="cls-3" d="M56.55,357.63c-6.41,3.7-6.41,9.7,0,13.4s16.79,3.7,23.2,0,6.4-9.7,0-13.4S63,353.93,56.55,357.63Z"/><g id="Plants"><path class="cls-4" d="M398.46,315.34c.16-1.55,2.18-41.62,15-63.65s31.77-32.32,41.53-23c8.77,8.39-2,20.57-15.1,33.15-15.56,14.92-26.69,31.46-29.84,52.29Z"/><path class="cls-5" d="M398.46,315.34c.16-1.55,2.18-41.62,15-63.65s31.77-32.32,41.53-23c8.77,8.39-2,20.57-15.1,33.15-15.56,14.92-26.69,31.46-29.84,52.29Z"/><path class="cls-6" d="M405.45,312.2a.8.8,0,0,0,.8-.76c2.44-44,33.17-72.3,41.26-77.47a.81.81,0,1,0-.87-1.36c-8.24,5.26-39.53,34.06-42,78.74a.8.8,0,0,0,.76.85Z"/><path class="cls-7" d="M397.21,307.18c2.05-5.55,7.68-9.12,13.36-10.94,5.86-1.88,12.11-2.39,17.93-4.41s10.85-5.37,16.56-7.38,13.45-2.33,18.51,1.43c7.83,5.81-.93,13.92-5.4,17.79-2.81,2.43-5,6.35-3.59,9.8s5.38,4.89,6.7,8.2c1.63,4.09-1.71,8.47-5.28,11.06a35.39,35.39,0,0,1-15.6,6.34c-3.27.47-7.15.8-8.84,3.65-1.26,2.14-.69,4.84-.83,7.33-.28,5.11-3.79,9.67-8.21,12.25-4.68,2.74-12.85,5-18.21,3.47l-15.65-4.53c-3.93-1.11-6.1-8.1-6.65-11.6a21.44,21.44,0,0,1,2.69-14.19c3.22-5.35,8.82-9.31,10.59-15.3,1.19-4,.45-8.42,1.73-12.42C397.07,307.55,397.14,307.36,397.21,307.18Z"/><path class="cls-6" d="M393.2,358.43a.58.58,0,0,0,.38-.42c7.18-32.29,47.14-61.22,62.59-67.84a.58.58,0,0,0,.31-.77.59.59,0,0,0-.76-.3c-15.62,6.69-56,36-63.28,68.65a.59.59,0,0,0,.44.7A.69.69,0,0,0,393.2,358.43Z"/><path class="cls-6" d="M444.14,326.71a.72.72,0,0,0,0-1.37,76.32,76.32,0,0,0-9.65-2.26,73.35,73.35,0,0,0-20-1,5.14,5.14,0,0,0-1.95.39c-.32.17-.63.49-.55.84.19.79,1.21.39,1.72.33.86-.1,1.74-.18,2.61-.24,1.73-.11,3.46-.15,5.2-.12a79,79,0,0,1,9.7.8,85.51,85.51,0,0,1,12,2.49l.48.15A.69.69,0,0,0,444.14,326.71Z"/></g><g id="Calculator-2" data-name="Calculator"><path class="cls-7" d="M236.9,16.91c0-2.75,1-4.68,2.51-5.59s14.73-8.59,16.34-9.48,3.7-.72,6.06.64l131.6,76c4.78,2.76,8.66,9.48,8.66,15V364.64c0,2.76-1,4.7-2.54,5.6s-14.65,8.48-16.19,9.4-3.76.83-6.18-.57l-131.6-76c-4.78-2.76-8.66-9.48-8.66-15Z"/><path class="cls-7" d="M385.82,374.07V102.89c0-5.52-3.88-12.24-8.66-15l-131.6-76c-4.78-2.76-8.66-.52-8.66,5V288.09c0,5.52,3.88,12.24,8.66,15l131.6,76C381.94,381.83,385.82,379.59,385.82,374.07Z"/><path class="cls-4" d="M351.21,324.52a1.05,1.05,0,0,1,1.09.06l19.33,11.17c1.11.64,2,2.76,2,4.72V359.4a2.8,2.8,0,0,1-.91,2.46c-.31.19-3.51,2-4.06,2.34a1,1,0,0,1-1.1-.05L348.23,353c-1.11-.64-2-2.76-2-4.73V329.33c0-1.28.37-2.17.94-2.48Z"/><path class="cls-8" d="M368.61,364.23l.05,0,4.07-2.34a2.83,2.83,0,0,0,.91-2.46V340.48a7.42,7.42,0,0,0-.65-3l-4.06,2.34a7.42,7.42,0,0,1,.65,3v18.92C369.57,363,369.19,363.93,368.61,364.23Z"/><path class="cls-9" d="M347.19,326.84a1.06,1.06,0,0,1,1.05.08l19.33,11.17a3.67,3.67,0,0,1,1.36,1.74l4.06-2.34a3.75,3.75,0,0,0-1.36-1.73L352.3,324.59a1.06,1.06,0,0,0-1.08-.07C350.67,324.83,347.59,326.62,347.19,326.84Z"/><path class="cls-4" d="M348.23,353l19.33,11.17c1.11.64,2-.44,2-2.41V342.81c0-2-.89-4.08-2-4.72l-19.34-11.17c-1.1-.64-2,.44-2,2.41v18.92C346.23,350.22,347.12,352.34,348.23,353Z"/><path class="cls-4" d="M282.17,284.66a1,1,0,0,1,1.08.06l19.33,11.17c1.11.64,2,2.75,2,4.72v18.93a2.85,2.85,0,0,1-.91,2.46l-4.07,2.34a1,1,0,0,1-1.09-.06l-19.34-11.17c-1.1-.64-2-2.75-2-4.72V289.46a2.75,2.75,0,0,1,.94-2.47C278.43,286.82,281.61,285,282.17,284.66Z"/><path class="cls-8" d="M299.56,324.36l.05,0,4.07-2.34a2.83,2.83,0,0,0,.91-2.46V300.61a7.42,7.42,0,0,0-.65-3L299.88,300a7.42,7.42,0,0,1,.65,3v18.92C300.52,323.16,300.14,324.06,299.56,324.36Z"/><path class="cls-9" d="M278.14,287a1.06,1.06,0,0,1,1.05.08l19.33,11.17a3.67,3.67,0,0,1,1.36,1.74l4.06-2.34a3.75,3.75,0,0,0-1.36-1.73l-19.33-11.17a1.06,1.06,0,0,0-1.08-.07C281.62,285,278.54,286.75,278.14,287Z"/><path class="cls-4" d="M279.18,313.11l19.34,11.17c1.11.64,2-.43,2-2.4V303c0-2-.9-4.09-2-4.73l-19.33-11.17c-1.11-.63-2,.44-2,2.41v18.93C277.18,310.36,278.08,312.47,279.18,313.11Z"/><path class="cls-4" d="M247.64,264.72a1.08,1.08,0,0,1,1.09.07L268.06,276c1.11.63,2,2.75,2,4.72v18.93a2.8,2.8,0,0,1-.91,2.46l-4.06,2.34a1.07,1.07,0,0,1-1.1-.06l-19.33-11.17c-1.11-.64-2-2.75-2-4.72V269.53a2.76,2.76,0,0,1,.94-2.48C243.91,266.89,247.09,265,247.64,264.72Z"/><path class="cls-8" d="M265,304.43l0,0,4.07-2.34a2.83,2.83,0,0,0,.91-2.46V280.68a7.42,7.42,0,0,0-.65-3L265.36,280a7.42,7.42,0,0,1,.65,3v18.92C266,303.23,265.62,304.13,265,304.43Z"/><path class="cls-9" d="M243.62,267a1.06,1.06,0,0,1,1,.08L264,278.29a3.67,3.67,0,0,1,1.36,1.74l4.06-2.34a3.75,3.75,0,0,0-1.36-1.73l-19.33-11.17a1.06,1.06,0,0,0-1.08-.07C247.1,265,244,266.82,243.62,267Z"/><path class="cls-4" d="M244.66,293.18,264,304.35c1.11.64,2-.44,2-2.41V283c0-2-.89-4.09-2-4.73l-19.34-11.17c-1.1-.64-2,.44-2,2.41v18.93C242.66,290.43,243.55,292.54,244.66,293.18Z"/><path class="cls-4" d="M247.64,224.81a1.08,1.08,0,0,1,1.09.07L268.06,236c1.11.64,2,2.76,2,4.73V259.7a2.8,2.8,0,0,1-.91,2.46l-4.06,2.33a1,1,0,0,1-1.1-.05l-19.33-11.17c-1.11-.64-2-2.75-2-4.72V229.62a2.76,2.76,0,0,1,.94-2.48Z"/><path class="cls-8" d="M265,264.52l0,0,4.07-2.34a2.83,2.83,0,0,0,.91-2.46V240.77a7.42,7.42,0,0,0-.65-3l-4.06,2.34a7.42,7.42,0,0,1,.65,3V262C266,263.32,265.62,264.22,265,264.52Z"/><path class="cls-9" d="M243.62,227.13a1.06,1.06,0,0,1,1,.08L264,238.38a3.67,3.67,0,0,1,1.36,1.74l4.06-2.34a3.75,3.75,0,0,0-1.36-1.73l-19.33-11.17a1.06,1.06,0,0,0-1.08-.07C247.1,225.12,244,226.91,243.62,227.13Z"/><path class="cls-4" d="M244.66,253.27,264,264.44c1.11.64,2-.44,2-2.41V243.1c0-2-.89-4.08-2-4.72l-19.34-11.17c-1.1-.64-2,.44-2,2.41v18.93C242.66,250.52,243.55,252.63,244.66,253.27Z"/><path class="cls-4" d="M247.64,184.9a1.08,1.08,0,0,1,1.09.06l19.33,11.17c1.11.64,2,2.76,2,4.73v18.93a2.8,2.8,0,0,1-.91,2.46l-4.06,2.33a1,1,0,0,1-1.1-.05l-19.33-11.17c-1.11-.64-2-2.75-2-4.72V189.71a2.76,2.76,0,0,1,.94-2.48Z"/><path class="cls-8" d="M265,224.61l0,0,4.07-2.34a2.83,2.83,0,0,0,.91-2.46V200.86a7.42,7.42,0,0,0-.65-3l-4.06,2.34a7.42,7.42,0,0,1,.65,3v18.92C266,223.41,265.62,224.31,265,224.61Z"/><path class="cls-9" d="M243.62,187.22a1.06,1.06,0,0,1,1,.08L264,198.47a3.67,3.67,0,0,1,1.36,1.74l4.06-2.34a3.75,3.75,0,0,0-1.36-1.73L248.73,185a1.06,1.06,0,0,0-1.08-.07C247.1,185.21,244,187,243.62,187.22Z"/><path class="cls-4" d="M244.66,213.36,264,224.53c1.11.64,2-.44,2-2.41V203.19c0-2-.89-4.08-2-4.72L244.66,187.3c-1.1-.64-2,.44-2,2.41v18.93C242.66,210.61,243.55,212.72,244.66,213.36Z"/><path class="cls-4" d="M247.64,145a1.08,1.08,0,0,1,1.09.06l19.33,11.17c1.11.64,2,2.76,2,4.73v18.92a2.82,2.82,0,0,1-.91,2.47l-4.06,2.33a1,1,0,0,1-1.1,0l-19.33-11.17c-1.11-.64-2-2.76-2-4.72V149.8a2.76,2.76,0,0,1,.94-2.48Z"/><path class="cls-8" d="M265,184.7l0,0,4.07-2.34a2.83,2.83,0,0,0,.91-2.46V161a7.42,7.42,0,0,0-.65-3l-4.06,2.34a7.42,7.42,0,0,1,.65,3v18.92C266,183.5,265.62,184.4,265,184.7Z"/><path class="cls-9" d="M243.62,147.31a1.06,1.06,0,0,1,1,.08L264,158.56a3.67,3.67,0,0,1,1.36,1.74l4.06-2.34a3.75,3.75,0,0,0-1.36-1.73l-19.33-11.17a1.06,1.06,0,0,0-1.08-.07C247.1,145.3,244,147.09,243.62,147.31Z"/><path class="cls-4" d="M244.66,173.45,264,184.62c1.11.64,2-.44,2-2.41V163.28c0-2-.89-4.08-2-4.72l-19.34-11.17c-1.1-.64-2,.44-2,2.41v18.93C242.66,170.69,243.55,172.81,244.66,173.45Z"/><path class="cls-4" d="M247.64,105.08a1.05,1.05,0,0,1,1.09.06l19.33,11.17c1.11.64,2,2.76,2,4.72V140a2.8,2.8,0,0,1-.91,2.46c-.31.19-3.51,2-4.06,2.34a1,1,0,0,1-1.1,0l-19.33-11.17c-1.11-.64-2-2.76-2-4.73V109.89a2.76,2.76,0,0,1,.94-2.48Z"/><path class="cls-8" d="M265,144.79l0,0,4.07-2.34a2.83,2.83,0,0,0,.91-2.46V121a7.42,7.42,0,0,0-.65-3l-4.06,2.34a7.42,7.42,0,0,1,.65,3V142.3C266,143.59,265.62,144.49,265,144.79Z"/><path class="cls-9" d="M243.62,107.4a1.06,1.06,0,0,1,1,.08L264,118.65a3.67,3.67,0,0,1,1.36,1.74l4.06-2.34a3.75,3.75,0,0,0-1.36-1.73l-19.33-11.17a1.06,1.06,0,0,0-1.08-.07C247.1,105.39,244,107.18,243.62,107.4Z"/><path class="cls-4" d="M244.66,133.54,264,144.71c1.11.64,2-.44,2-2.41V123.37c0-2-.89-4.08-2-4.72l-19.34-11.17c-1.1-.64-2,.44-2,2.41v18.92C242.66,130.78,243.55,132.9,244.66,133.54Z"/><path class="cls-4" d="M282.17,125a1.06,1.06,0,0,1,1.08.06l19.33,11.17c1.11.64,2,2.76,2,4.73V159.9a2.85,2.85,0,0,1-.91,2.46l-4.07,2.33a1,1,0,0,1-1.09-.05l-19.34-11.17c-1.1-.64-2-2.75-2-4.72V129.82a2.78,2.78,0,0,1,.94-2.48Z"/><path class="cls-8" d="M299.56,164.72l.05,0,4.07-2.34a2.83,2.83,0,0,0,.91-2.46V141a7.42,7.42,0,0,0-.65-3l-4.06,2.34a7.42,7.42,0,0,1,.65,3v18.92C300.52,163.52,300.14,164.42,299.56,164.72Z"/><path class="cls-9" d="M278.14,127.33a1.06,1.06,0,0,1,1.05.08l19.33,11.17a3.67,3.67,0,0,1,1.36,1.74l4.06-2.34a3.75,3.75,0,0,0-1.36-1.73l-19.33-11.17a1.06,1.06,0,0,0-1.08-.07C281.62,125.32,278.54,127.11,278.14,127.33Z"/><path class="cls-4" d="M279.18,153.47l19.34,11.17c1.11.64,2-.44,2-2.41V143.3c0-2-.9-4.08-2-4.72l-19.33-11.17c-1.11-.64-2,.44-2,2.41v18.93C277.18,150.72,278.08,152.83,279.18,153.47Z"/><path class="cls-4" d="M316.69,144.94a1.06,1.06,0,0,1,1.08.07l19.34,11.17c1.1.63,2,2.75,2,4.72v18.93a2.8,2.8,0,0,1-.91,2.46l-4.06,2.34a1.07,1.07,0,0,1-1.1-.06L313.71,173.4c-1.11-.64-2-2.75-2-4.72V149.75a2.81,2.81,0,0,1,.94-2.48C313,147.11,316.13,145.26,316.69,144.94Z"/><path class="cls-8" d="M334.08,184.65l.05,0,4.07-2.34a2.83,2.83,0,0,0,.91-2.46V160.9a7.42,7.42,0,0,0-.65-3l-4.06,2.34a7.42,7.42,0,0,1,.65,3v18.92C335,183.45,334.66,184.35,334.08,184.65Z"/><path class="cls-9" d="M312.66,147.26a1.06,1.06,0,0,1,1,.08L333,158.51a3.67,3.67,0,0,1,1.36,1.74l4.06-2.34a3.75,3.75,0,0,0-1.36-1.73L317.77,145a1.06,1.06,0,0,0-1.08-.07C316.14,145.25,313.06,147,312.66,147.26Z"/><path class="cls-4" d="M313.71,173.4,333,184.57c1.11.64,2-.44,2-2.41V163.24c0-2-.9-4.09-2-4.73l-19.33-11.17c-1.11-.64-2,.44-2,2.41v18.93C311.7,170.65,312.6,172.76,313.71,173.4Z"/><path class="cls-4" d="M351.21,164.88a1.05,1.05,0,0,1,1.09.06l19.33,11.17c1.11.64,2,2.75,2,4.72v18.93a2.8,2.8,0,0,1-.91,2.46l-4.06,2.34a1,1,0,0,1-1.1-.06l-19.33-11.17c-1.11-.64-2-2.75-2-4.72V169.68c0-1.27.37-2.17.94-2.47Z"/><path class="cls-8" d="M368.61,204.58l.05,0,4.07-2.34a2.83,2.83,0,0,0,.91-2.46V180.83a7.42,7.42,0,0,0-.65-3l-4.06,2.34a7.42,7.42,0,0,1,.65,3v18.92C369.57,203.38,369.19,204.28,368.61,204.58Z"/><path class="cls-9" d="M347.19,167.19a1.06,1.06,0,0,1,1.05.08l19.33,11.17a3.67,3.67,0,0,1,1.36,1.74l4.06-2.34a3.75,3.75,0,0,0-1.36-1.73L352.3,164.94a1.06,1.06,0,0,0-1.08-.07C350.67,165.18,347.59,167,347.19,167.19Z"/><path class="cls-4" d="M348.23,193.33l19.33,11.17c1.11.64,2-.43,2-2.4V183.17c0-2-.89-4.09-2-4.73l-19.34-11.17c-1.1-.63-2,.44-2,2.41v18.93C346.23,190.58,347.12,192.69,348.23,193.33Z"/><path class="cls-10" d="M316.69,304.59a1,1,0,0,1,1.08.06l19.34,11.17c1.1.64,2,2.75,2,4.72v18.93a2.8,2.8,0,0,1-.91,2.46l-4.06,2.34a1,1,0,0,1-1.1-.06l-19.33-11.16c-1.11-.64-2-2.76-2-4.73V309.39c0-1.27.38-2.17.94-2.47C313,306.75,316.13,304.9,316.69,304.59Z"/><path class="cls-11" d="M312.66,306.9a1.06,1.06,0,0,1,1,.08L333,318.15a3.67,3.67,0,0,1,1.36,1.74l4.06-2.34a3.75,3.75,0,0,0-1.36-1.73l-19.33-11.17a1.06,1.06,0,0,0-1.08-.07C316.14,304.89,313.06,306.68,312.66,306.9Z"/><path class="cls-12" d="M334.08,344.29l.05,0,4.07-2.34a2.83,2.83,0,0,0,.91-2.46V320.54a7.42,7.42,0,0,0-.65-3l-4.06,2.34a7.42,7.42,0,0,1,.65,3V341.8C335,343.09,334.66,344,334.08,344.29Z"/><path class="cls-10" d="M351.21,284.61a1.05,1.05,0,0,1,1.09.06l19.33,11.17c1.11.64,2,2.75,2,4.72v18.93a2.8,2.8,0,0,1-.91,2.46c-.31.19-3.51,2-4.06,2.34a1.07,1.07,0,0,1-1.1-.05l-19.33-11.17c-1.11-.64-2-2.76-2-4.73V289.41c0-1.27.37-2.17.94-2.47Z"/><path class="cls-11" d="M347.19,286.92a1.06,1.06,0,0,1,1.05.08l19.33,11.17a3.67,3.67,0,0,1,1.36,1.74l4.06-2.34a3.75,3.75,0,0,0-1.36-1.73L352.3,284.67a1.06,1.06,0,0,0-1.08-.07C350.67,284.91,347.59,286.7,347.19,286.92Z"/><path class="cls-12" d="M368.61,324.31l.05,0,4.07-2.34a2.83,2.83,0,0,0,.91-2.46V300.56a7.42,7.42,0,0,0-.65-3l-4.06,2.34a7.42,7.42,0,0,1,.65,3v18.92C369.57,323.11,369.19,324,368.61,324.31Z"/><path class="cls-10" d="M282.17,244.75a1,1,0,0,1,1.08.06L302.58,256c1.11.64,2,2.75,2,4.72v18.93a2.83,2.83,0,0,1-.91,2.46l-4.07,2.34a1,1,0,0,1-1.09-.06L279.18,273.2c-1.1-.64-2-2.75-2-4.72V249.55a2.78,2.78,0,0,1,.94-2.48C278.43,246.91,281.61,245.06,282.17,244.75Z"/><path class="cls-11" d="M278.14,247.06a1.06,1.06,0,0,1,1.05.08l19.33,11.17a3.67,3.67,0,0,1,1.36,1.74l4.06-2.34a3.75,3.75,0,0,0-1.36-1.73l-19.33-11.17a1.06,1.06,0,0,0-1.08-.07C281.62,245.05,278.54,246.84,278.14,247.06Z"/><path class="cls-12" d="M299.56,284.45l.05,0,4.07-2.34a2.83,2.83,0,0,0,.91-2.46V260.7a7.42,7.42,0,0,0-.65-3l-4.06,2.34a7.42,7.42,0,0,1,.65,3V282C300.52,283.25,300.14,284.15,299.56,284.45Z"/><path class="cls-10" d="M316.69,264.68a1,1,0,0,1,1.08.06l19.34,11.17c1.1.64,2,2.75,2,4.72v18.93a2.8,2.8,0,0,1-.91,2.46l-4.06,2.34a1,1,0,0,1-1.1-.06l-19.33-11.16c-1.11-.64-2-2.76-2-4.73V269.48c0-1.27.38-2.17.94-2.47C313,266.84,316.13,265,316.69,264.68Z"/><path class="cls-11" d="M312.66,267a1.06,1.06,0,0,1,1,.08L333,278.24A3.67,3.67,0,0,1,334.4,280l4.06-2.34a3.75,3.75,0,0,0-1.36-1.73l-19.33-11.17a1.06,1.06,0,0,0-1.08-.07C316.14,265,313.06,266.77,312.66,267Z"/><path class="cls-12" d="M334.08,304.38l.05,0L338.2,302a2.83,2.83,0,0,0,.91-2.46V280.63a7.42,7.42,0,0,0-.65-3L334.4,280a7.42,7.42,0,0,1,.65,3v18.92C335,303.18,334.66,304.08,334.08,304.38Z"/><path class="cls-10" d="M351.21,244.71a1.06,1.06,0,0,1,1.09.07l19.33,11.16c1.11.64,2,2.76,2,4.73V279.6a2.8,2.8,0,0,1-.91,2.46l-4.06,2.33a1,1,0,0,1-1.1-.05l-19.33-11.17c-1.11-.64-2-2.75-2-4.72V249.52a2.76,2.76,0,0,1,.94-2.48Z"/><path class="cls-11" d="M347.19,247a1.06,1.06,0,0,1,1.05.08l19.33,11.17a3.67,3.67,0,0,1,1.36,1.74l4.06-2.34a3.75,3.75,0,0,0-1.36-1.73L352.3,244.78a1.06,1.06,0,0,0-1.08-.07C350.67,245,347.59,246.81,347.19,247Z"/><path class="cls-12" d="M368.61,284.42l.05,0,4.07-2.34a2.83,2.83,0,0,0,.91-2.46V260.67a7.42,7.42,0,0,0-.65-3L368.93,260a7.42,7.42,0,0,1,.65,3v18.92C369.57,283.22,369.19,284.12,368.61,284.42Z"/><path class="cls-10" d="M282.17,204.85a1,1,0,0,1,1.08.06l19.33,11.17c1.11.64,2,2.75,2,4.72v18.93a2.83,2.83,0,0,1-.91,2.46l-4.07,2.34a1.05,1.05,0,0,1-1.09-.05l-19.34-11.17c-1.1-.64-2-2.76-2-4.73V209.65a2.75,2.75,0,0,1,.94-2.47C278.43,207,281.61,205.16,282.17,204.85Z"/><path class="cls-11" d="M278.14,207.16a1.06,1.06,0,0,1,1.05.08l19.33,11.17a3.67,3.67,0,0,1,1.36,1.74l4.06-2.34a3.75,3.75,0,0,0-1.36-1.73l-19.33-11.17a1.06,1.06,0,0,0-1.08-.07C281.62,205.15,278.54,206.94,278.14,207.16Z"/><path class="cls-12" d="M299.56,244.55l.05,0,4.07-2.34a2.83,2.83,0,0,0,.91-2.46V220.8a7.42,7.42,0,0,0-.65-3l-4.06,2.34a7.42,7.42,0,0,1,.65,3v18.92C300.52,243.35,300.14,244.25,299.56,244.55Z"/><path class="cls-10" d="M316.69,224.78a1.06,1.06,0,0,1,1.08.06L337.11,236c1.1.64,2,2.76,2,4.73v18.92a2.82,2.82,0,0,1-.91,2.47c-.32.18-3.52,2-4.06,2.33a1,1,0,0,1-1.1,0l-19.33-11.17c-1.11-.64-2-2.76-2-4.72V229.59a2.81,2.81,0,0,1,.94-2.48C313,226.94,316.13,225.09,316.69,224.78Z"/><path class="cls-11" d="M312.66,227.1a1.06,1.06,0,0,1,1,.08L333,238.35a3.67,3.67,0,0,1,1.36,1.74l4.06-2.34A3.75,3.75,0,0,0,337.1,236l-19.33-11.17a1.06,1.06,0,0,0-1.08-.07C316.14,225.09,313.06,226.88,312.66,227.1Z"/><path class="cls-12" d="M334.08,264.49l.05,0,4.07-2.34a2.83,2.83,0,0,0,.91-2.46V240.74a7.42,7.42,0,0,0-.65-3l-4.06,2.34a7.42,7.42,0,0,1,.65,3V262C335,263.29,334.66,264.19,334.08,264.49Z"/><path class="cls-10" d="M351.21,204.81a1.05,1.05,0,0,1,1.09.06L371.63,216c1.11.64,2,2.76,2,4.72v18.93a2.8,2.8,0,0,1-.91,2.46c-.31.19-3.51,2-4.06,2.34a1.07,1.07,0,0,1-1.1-.05l-19.33-11.17c-1.11-.64-2-2.76-2-4.73V209.61c0-1.27.37-2.17.94-2.47Z"/><path class="cls-11" d="M347.19,207.13a1.06,1.06,0,0,1,1.05.08l19.33,11.17a3.67,3.67,0,0,1,1.36,1.74l4.06-2.34a3.75,3.75,0,0,0-1.36-1.73L352.3,204.88a1.06,1.06,0,0,0-1.08-.07C350.67,205.12,347.59,206.91,347.19,207.13Z"/><path class="cls-12" d="M368.61,244.52l.05,0,4.07-2.34a2.83,2.83,0,0,0,.91-2.46V220.77a7.42,7.42,0,0,0-.65-3l-4.06,2.34a7.42,7.42,0,0,1,.65,3V242C369.57,243.32,369.19,244.22,368.61,244.52Z"/><path class="cls-10" d="M282.17,165a1,1,0,0,1,1.08.06l19.33,11.17c1.11.64,2,2.75,2,4.72v18.93a2.83,2.83,0,0,1-.91,2.46l-4.07,2.34a1,1,0,0,1-1.09-.06L279.18,193.4c-1.1-.64-2-2.75-2-4.72V169.75a2.78,2.78,0,0,1,.94-2.48C278.43,167.11,281.61,165.26,282.17,165Z"/><path class="cls-11" d="M278.14,167.26a1.06,1.06,0,0,1,1.05.08l19.33,11.17a3.67,3.67,0,0,1,1.36,1.74l4.06-2.34a3.75,3.75,0,0,0-1.36-1.73L283.25,165a1.06,1.06,0,0,0-1.08-.07C281.62,165.25,278.54,167,278.14,167.26Z"/><path class="cls-12" d="M299.56,204.65l.05,0,4.07-2.34a2.83,2.83,0,0,0,.91-2.46V180.9a7.42,7.42,0,0,0-.65-3l-4.06,2.34a7.42,7.42,0,0,1,.65,3v18.92C300.52,203.45,300.14,204.35,299.56,204.65Z"/><path class="cls-10" d="M316.69,184.88a1,1,0,0,1,1.08.06l19.34,11.17c1.1.64,2,2.75,2,4.72v18.93a2.8,2.8,0,0,1-.91,2.46l-4.06,2.34a1,1,0,0,1-1.1-.06l-19.33-11.16c-1.11-.64-2-2.76-2-4.73V189.68c0-1.27.38-2.17.94-2.47C313,187,316.13,185.19,316.69,184.88Z"/><path class="cls-11" d="M312.66,187.19a1.06,1.06,0,0,1,1,.08L333,198.44a3.67,3.67,0,0,1,1.36,1.74l4.06-2.34a3.75,3.75,0,0,0-1.36-1.73l-19.33-11.17a1.06,1.06,0,0,0-1.08-.07C316.14,185.18,313.06,187,312.66,187.19Z"/><path class="cls-12" d="M334.08,224.58l.05,0,4.07-2.34a2.83,2.83,0,0,0,.91-2.46V200.83a7.42,7.42,0,0,0-.65-3l-4.06,2.34a7.42,7.42,0,0,1,.65,3v18.92C335,223.38,334.66,224.28,334.08,224.58Z"/><path class="cls-5" d="M383.26,94.3a17.7,17.7,0,0,1,2.57,8.59V374.07c0,2.69-.92,4.6-2.41,5.54,1.78-1.07,14.58-8.47,16.13-9.36s2.53-2.85,2.53-5.61V93.46a17.69,17.69,0,0,0-2.54-8.55Z"/><path class="cls-13" d="M239.42,11.32l-.09.06c1.57-1,3.78-.88,6.24.54l131.6,76a17.59,17.59,0,0,1,6.09,6.41l16.27-9.39a17.71,17.71,0,0,0-6.12-6.45l-131.6-76c-2.36-1.37-4.5-1.51-6.06-.65S241,10.4,239.42,11.32Z"/><path class="cls-13" d="M249.72,88.85h0a4.51,4.51,0,0,0,1.54,1.61l120.21,69.41c1.2.69,2.17.13,2.17-1.25V102.38a4.8,4.8,0,0,0-2.16-3.75l-69.3-40Z"/><path class="cls-5" d="M249.09,30.47V86.72a4.43,4.43,0,0,0,.63,2.13l52.46-30.21-49-28.33-1.89-1.09C250.06,28.53,249.09,29.09,249.09,30.47Z"/><path class="cls-4" d="M253.15,30.31V84.38a4.78,4.78,0,0,0,2.17,3.75l118.32,68.3V102.38a4.8,4.8,0,0,0-2.16-3.75Z"/><path class="cls-8" d="M253.15,30.31V84.38a4.78,4.78,0,0,0,2.17,3.75l118.32,68.3V102.38a4.8,4.8,0,0,0-2.16-3.75Z"/></g><g id="Character"><path class="cls-14" d="M51.74,319.81l15,43.64a1.4,1.4,0,0,0,2.66,0l14.76-44Z"/><path class="cls-15" d="M69.36,363.44a1.4,1.4,0,0,1-2.66,0l-2.92-8.52h0a7.76,7.76,0,0,0,8.08-.45l.65-.45Z"/><path class="cls-4" d="M83.55,124.84v4.27l0,5.15.52,185.19c-3.42,3.91-8.49,5.9-13.63,6.41-7.83.82-15.86-1.75-18.73-6.05l-.52-185.08,0-9.85C51.58,131.26,83.84,131.24,83.55,124.84Z"/><path class="cls-16" d="M83.55,124.84v4.27l0,5.15.52,185.19c-3.42,3.91-8.49,5.9-13.63,6.41-7.83.82-15.86-1.75-18.73-6.05l-.52-185.08,0-9.85C51.58,131.26,83.84,131.24,83.55,124.84Z"/><path class="cls-17" d="M83.65,141.09v9.54c.1,2.76-5.79,4.55-12.59,5.17-9,.86-19.65-1.59-19.79-5.25v-7l0-2.51c.13,3.66,10.76,6.11,19.79,5.26,6.51-.61,12.21-2.3,12.54-4.88v0A.6.6,0,0,0,83.65,141.09Z"/><path class="cls-4" d="M83.63,143.47c.24,6.42-32.12,6.34-32.35-.08l0-9.54c.23,6.42,32.58,6.5,32.35.08Z"/><path class="cls-17" d="M83.55,124.84l0,9.42c.27,6.3-30.95,6.49-32.36.47a1.29,1.29,0,0,1-.06-.36l0-9.49C51.58,131.26,83.84,131.24,83.55,124.84Z"/><path class="cls-14" d="M51.06,84.46v-.4c0-4.6,7.24-8.33,16.18-8.33s16.17,3.73,16.17,8.33V88.4l.14,36.44c.13,2.73-5.69,4.54-12.43,5.19-9,.88-19.7-1.5-19.91-5.15,0,0,0,0,0,0l-.14-40.12Z"/><ellipse class="cls-18" cx="67.24" cy="84.06" rx="16.18" ry="8.33"/><path class="cls-2" d="M51.24,134.73l-.18-50.27c.22,3.94,6.93,7.66,14.25,7.93L65.83,326l.87,37.44-15-43.64h0Z"/><path class="cls-14" d="M107.79,157.08c-6.15-.89-15.28,2.32-20.56,9.74S63.55,192.3,61.53,198c-1.46,4.19-2.73,14.69,5.93,11,8.39-3.58,37.25-32.43,37.25-32.43Z"/><path class="cls-14" d="M66.38,191.4l-15-14.52,0-14.39s-3,1-4.16,5.64-2.66,10-2.07,14,13.07,26,17.9,27.48C68.82,211.43,66.38,191.4,66.38,191.4Z"/><path class="cls-19" d="M121.29,362.18c.13,2.25.38,4.28-.54,6.73-1.33,3.52-4,5.09-5.59,6.46a26.89,26.89,0,0,0-4.64,5.4,22.94,22.94,0,0,1-4.84,5.81c-1.5,1.25-5.66,1.28-7.64.4s-2.65-1.65-2.46-4.85,9.91-4.09,9.91-4.09Z"/><path class="cls-4" d="M97,372.61c-.84.3-1.08,1.87-1.27,5-.14,2.37-1.2,5.82,2,7.38,2.61,1.26,6.84.55,8.67-1.65,2.27-2.75,3.83-5.18,7.06-8.52,2.82-2.89,5.7-3.83,7-9.71.86-3.78.27-5.36-2.26-6.5-3.48-1.57-9.09,3.21-11.86,3.92C104.06,363.15,97.86,372.31,97,372.61Z"/><path class="cls-20" d="M97,372.61c-.84.3-1.08,1.87-1.27,5-.14,2.37-1.2,5.82,2,7.38,2.61,1.26,6.84.55,8.67-1.65,2.27-2.75,3.83-5.18,7.06-8.52,2.82-2.89,5.7-3.83,7-9.71.86-3.78.27-5.36-2.26-6.5-3.48-1.57-9.09,3.21-11.86,3.92C104.06,363.15,97.86,372.31,97,372.61Z"/><path class="cls-21" d="M106.44,362.53a3.18,3.18,0,0,0,.47-.15,9,9,0,0,1,7.5,5.14c.45,1-1,1.82-1.85,1-1.88-3.94-5.9-4.89-7.5-5.11A4.22,4.22,0,0,1,106.44,362.53Z"/><path class="cls-21" d="M104.13,364.28a9,9,0,0,1,7,5.08c.45,1-1,1.82-1.86,1A9.23,9.23,0,0,0,103,365.5C103.39,365.06,103.77,364.65,104.13,364.28Z"/><path class="cls-19" d="M164.44,411.56c.49,2.66-.5,4-4,5.94s-8.86,2.48-14.49.72-8.28-4.28-10.62-4.92-8.16-.8-10.47-1.53-2.25-1.92-2.19-4.71Z"/><path class="cls-4" d="M125.25,393.64a64.51,64.51,0,0,0-1.82,6.23c-.52,2.32-1.28,6.2-.5,8s3.94,3,8.86,3c3.19,0,8.12,2.31,11.49,4.28s7.29,2.11,11,1.75c4.4-.42,9-2.88,9.73-4.68s1-3.16-9.28-7.77c-.1,0-11.9-4.66-16.79-10.28Z"/><g class="cls-22"><path d="M125.25,393.64a64.51,64.51,0,0,0-1.82,6.23c-.52,2.32-1.28,6.2-.5,8s3.94,3,8.86,3c3.19,0,8.12,2.31,11.49,4.28s7.29,2.11,11,1.75c4.4-.42,9-2.88,9.73-4.68s1-3.16-9.28-7.77c-.1,0-11.9-4.66-16.79-10.28Z"/></g><path class="cls-21" d="M144.68,415.83s1.06-8.85,8.32-11.24c6.57-2.16,12.16,2.78,11.44,7C164,414.37,155.9,420.63,144.68,415.83Z"/><path class="cls-21" d="M151.21,402.89a8.39,8.39,0,0,0-5,2.09c-2.11,1.71-2.19,2.87-2.19,2.87a1.1,1.1,0,0,1-1.87-.94s.58-4.46,6.48-5.26A2.41,2.41,0,0,1,151.21,402.89Z"/><path class="cls-21" d="M147.13,400.83a7.42,7.42,0,0,0-5,1.88c-2.12,1.71-2.16,3.08-2.16,3.08a1.09,1.09,0,0,1-1.86-.94s.57-4.46,6.48-5.26A2.41,2.41,0,0,1,147.13,400.83Z"/><path class="cls-21" d="M143.08,398.42a7.38,7.38,0,0,0-5.12,1.52c-2.23,1.56-2.36,2.93-2.36,2.93a1.09,1.09,0,0,1-1.8-1.06s.88-4.41,6.83-4.81A2.39,2.39,0,0,1,143.08,398.42Z"/><path class="cls-14" d="M97.13,367.54l-.12,6s3.94,3.15,9.72.46c.17-.37.78-6.27.78-6.27Z"/><path class="cls-14" d="M125.33,389.47s0,2.86-.09,4.49,1.84,4.1,6.83,4c3.51-.06,6-.95,5.89-3.84L138,390Z"/><path class="cls-19" d="M91.66,316.35c.58-12.69,3.31-18.2,3.31-18.2s-.66-15.7-2.39-34.93c-2.62-29.29-.3-33.63,5.73-46.66,0,0,48.56-5.29,49.65,15.18,1.35,25.49.54,77.28-.32,86.26s-.68.66-3.23,18.82C142.4,351.19,138,390,138,390c-6.59,3.4-12.71-.52-12.71-.52s-3.06-47.64-2.43-58c.77-12.66,1.55-15.87,1.55-15.87s-4.93-41.13-5.69-47.76c0,0-1,11.81-1.89,20.79s-.94,16.22-3.21,34.78c-1.78,14.56-6,46-6,46a12.07,12.07,0,0,1-10.71-1S91.19,326.61,91.66,316.35Z"/><path class="cls-21" d="M118.86,369.45s-.13-7-9.61-8.2l-.55.3a8.21,8.21,0,0,1,4.74-3.52c3.18-.79,5.65.08,7.27,2.25S120.53,368.11,118.86,369.45Z"/><path class="cls-23" d="M118.76,267.83l-.61-8.4a69.09,69.09,0,0,1-15-7.53,20.15,20.15,0,0,0,12.09,9.16l1.51,8.25.13,19.31Z"/><path class="cls-14" d="M113.56,146.42l-1,11h0c-2.47.77-2,4.26-.58,6.41l-.29,3.23,16.19,1.47,2.43-18.59Z"/><path class="cls-23" d="M95.74,165.42c1.8-4.9,8.9-8.65,13.21-8.32l3.61.32c-1,2,.45,3.42,3.07,4.18,3.38,1,9.59,1.53,13.25-.64L129,160s6.9,2,8.94,2.73c5.72,2.16,7.61,3.26,13.54,18.65,2.54,6.58,1,13.4-5.86,17.12-.51,4.07-1.08,10.48-1.08,10.48a231.34,231.34,0,0,1,4.13,26.45s-3.6,8.16-28.52,6.79c-19.3-1.07-28.28-10.83-28.28-10.83.47-4.74,3.47-12.3,9.61-26.57C94.21,184.34,93.07,172.68,95.74,165.42Z"/><path class="cls-15" d="M140.83,125s11.42-6,2.19-16.91c-6.64-7.85-17.43-6.89-30.41-2.36C106.53,107.87,97.7,114,96.92,126c-.6,9.2,25,16,24.47,22.29Z"/><path class="cls-14" d="M143,129.8s3.48,5.58,3,6.15-2.82,1.12-2.82,1.12Z"/><path class="cls-14" d="M132.4,112.12c3.48,1.92,9.48,5.45,10.7,18.48,1.25,13.39-1.85,17.94-3.71,19.64-1.26,1.15-7.61,1.4-10.88.29-4.1-1.4-12.94-6.06-16.95-13.06-4.72-8.23-5.45-19,.37-23.13C120.11,108.6,129.45,110.5,132.4,112.12Z"/><path class="cls-14" d="M130.19,150.94c2.9.51,6.75.35,8.49-.31a15.66,15.66,0,0,1-8.37-2.39Z"/><path class="cls-15" d="M132.22,127.87a13.24,13.24,0,0,0,8.49-10.69c1.32-8.49-9.29-12.09-9.29-12.09Z"/><path class="cls-15" d="M96.91,124.59c.86-6.13,4.92-14.36,12.8-16.75,14.67-4.44,23.71,4.87,23.71,4.87a44.67,44.67,0,0,1,.7,13.36,3.07,3.07,0,0,1,.95,0v5.84a3.21,3.21,0,0,1-3.21,3.21v-3.31c-.78-1.3-2.68-3.69-5.73-2.77-4.14,1.26-4.32,6.64-1.35,9.72s5.62,1.94,6.32.83a2.26,2.26,0,0,0,.14-.29l1.64,13.41s0,2.1-10.65,2.61-20.87-2.39-24-6.45S96,130.72,96.91,124.59Z"/><path class="cls-4" d="M131.86,131.75s2.65-8.87.28-16.24-6.29-11-11-12.16a13.75,13.75,0,0,0-10.69,3.29,17.82,17.82,0,0,1,13.36,6.12c5.38,5.88,5.81,12.67,6.11,16.82A11.53,11.53,0,0,1,131.86,131.75Z"/><path class="cls-15" d="M186.6,194.38l-36.67,19.7-.61.95v.76a1.1,1.1,0,0,0,.61,1l27.33,15.74a2.07,2.07,0,0,0,1,.25,2,2,0,0,0,1-.25l36-20.81v-.76Z"/><path class="cls-19" d="M178.27,232a2.07,2.07,0,0,1-1-.25L149.93,216a1.11,1.11,0,0,1-.61-.95,1.1,1.1,0,0,1,.61-.95l35.38-20.44,30,17.27-36,20.81A2,2,0,0,1,178.27,232Z"/><path class="cls-11" d="M185.31,191.4l-35.07,20.26-.28.4v3h0a.49.49,0,0,0,.28.4l27.34,15.74a1.53,1.53,0,0,0,1.38,0L214,210.91v-3Z"/><path class="cls-17" d="M214,207.94l-.35.2-4.5,2.6-.84.48L179,228.2a1.59,1.59,0,0,1-1.38,0l-27.34-15.75a.42.42,0,0,1,0-.79l.37-.21,34.7-20,28.37,16.34.09,0Z"/><path class="cls-10" d="M178.27,228.36v3a1.41,1.41,0,0,1-.69-.16l-27.34-15.75A.46.46,0,0,1,150,215v-3a.47.47,0,0,0,.28.39l27.34,15.75A1.41,1.41,0,0,0,178.27,228.36Z"/><path class="cls-21" d="M214,207.54l-5,2.88-.78.45L179,227.8a1.53,1.53,0,0,1-1.38,0l-23.3-13.41-.87-.5a8.55,8.55,0,0,1-2.8-2.44.36.36,0,0,0-.07-.1.6.6,0,0,1,.4-.91,12.86,12.86,0,0,0,2.61-1.08l0,0L185.31,191Z"/><path class="cls-10" d="M202.6,209.07l-19.45-11.23a1,1,0,0,0-.86,0l0,0a.26.26,0,0,0,0,.5l19.44,11.23a1,1,0,0,0,.87,0l0,0A.26.26,0,0,0,202.6,209.07Z"/><path class="cls-10" d="M200.69,210.15l-19.45-11.23a1,1,0,0,0-.86,0l0,0c-.24.14-.24.37,0,.5l19.44,11.23a1,1,0,0,0,.87,0l.05,0A.26.26,0,0,0,200.69,210.15Z"/><path class="cls-10" d="M198.78,211.23,179.33,200a.93.93,0,0,0-.86,0l-.05,0c-.24.14-.24.37,0,.5l19.44,11.23a1,1,0,0,0,.87,0l.05,0A.26.26,0,0,0,198.78,211.23Z"/><path class="cls-10" d="M185.21,219.12l-19.44-11.23a1,1,0,0,0-.87,0l-.05,0a.26.26,0,0,0,0,.5l19.45,11.23a1,1,0,0,0,.86,0l.05,0C185.45,219.48,185.45,219.25,185.21,219.12Z"/><text class="cls-24" transform="matrix(-0.87, -0.5, -0.87, 0.5, 174.06, 210.75)">544</text><text class="cls-24" transform="matrix(-0.87, -0.5, -0.87, 0.5, 177.01, 208.69)">216</text><text class="cls-24" transform="matrix(-0.87, -0.5, -0.87, 0.5, 180.36, 207.09)">954</text><text class="cls-24" transform="matrix(-0.87, -0.5, -0.87, 0.5, 181.01, 209.94)">+</text><text class="cls-24" transform="matrix(-0.87, -0.5, -0.87, 0.5, 183.5, 216.21)">914</text><text class="cls-24" transform="matrix(-0.87, -0.5, -0.87, 0.5, 186.98, 214.45)">356</text><text class="cls-24" transform="matrix(-0.87, -0.5, -0.87, 0.5, 190.07, 212.71)">984</text><text class="cls-24" transform="matrix(-0.87, -0.5, -0.87, 0.5, 190.7, 215.55)">+</text><path class="cls-2" d="M208.87,207.19c-.35.21-.35.54,0,.74a1.38,1.38,0,0,0,1.28,0c.36-.2.36-.53,0-.74A1.38,1.38,0,0,0,208.87,207.19Z"/><path class="cls-4" d="M213,204.78a1.71,1.71,0,0,0-1.72.12,5.46,5.46,0,0,0-2.18,3.13,1.54,1.54,0,0,0,.48.06,4.83,4.83,0,0,1,1.93-2.77,1.62,1.62,0,0,1,.79-.24.9.9,0,0,1,.46.12,1.74,1.74,0,0,1,.66,1.59,2.53,2.53,0,0,1,0,.38l.45.26a3.52,3.52,0,0,0,0-.64A2.21,2.21,0,0,0,213,204.78Z"/><path class="cls-15" d="M213.79,207.68a.52.52,0,0,1,0,.11l-.09,0Z"/><path class="cls-2" d="M205,205a.39.39,0,0,0,0,.74,1.38,1.38,0,0,0,1.28,0,.39.39,0,0,0,0-.74A1.38,1.38,0,0,0,205,205Z"/><path class="cls-4" d="M209.12,202.55a1.69,1.69,0,0,0-1.72.12,5.34,5.34,0,0,0-2.17,3.12,1.22,1.22,0,0,0,.47.06,4.84,4.84,0,0,1,1.94-2.77,1.59,1.59,0,0,1,.78-.24.94.94,0,0,1,.47.12,1.77,1.77,0,0,1,.65,1.59c0,.13,0,.26,0,.38l.45.26a4.58,4.58,0,0,0,0-.64A2.2,2.2,0,0,0,209.12,202.55Z"/><path class="cls-2" d="M201.13,202.72a.4.4,0,0,0,0,.75,1.44,1.44,0,0,0,1.28,0,.4.4,0,0,0,0-.75A1.44,1.44,0,0,0,201.13,202.72Z"/><path class="cls-4" d="M205.26,200.32a1.68,1.68,0,0,0-1.73.12,5.34,5.34,0,0,0-2.17,3.12,1.22,1.22,0,0,0,.47.06,4.84,4.84,0,0,1,1.94-2.77,1.59,1.59,0,0,1,.78-.24.94.94,0,0,1,.47.12,1.77,1.77,0,0,1,.65,1.59c0,.13,0,.25,0,.38l.45.26a4.68,4.68,0,0,0,0-.64A2.19,2.19,0,0,0,205.26,200.32Z"/><path class="cls-2" d="M197.26,200.49c-.35.21-.35.54,0,.74a1.4,1.4,0,0,0,1.29,0c.35-.2.35-.53,0-.74A1.4,1.4,0,0,0,197.26,200.49Z"/><path class="cls-4" d="M201.39,198.08a1.7,1.7,0,0,0-1.73.12,5.4,5.4,0,0,0-2.17,3.13,1.45,1.45,0,0,0,.47,0,4.82,4.82,0,0,1,1.94-2.76,1.61,1.61,0,0,1,.79-.25.94.94,0,0,1,.46.13,1.75,1.75,0,0,1,.65,1.59c0,.12,0,.25,0,.38l.45.26a4.72,4.72,0,0,0,.05-.64A2.23,2.23,0,0,0,201.39,198.08Z"/><path class="cls-2" d="M193.39,198.26c-.35.2-.35.53,0,.74a1.4,1.4,0,0,0,1.29,0c.35-.21.35-.54,0-.74A1.4,1.4,0,0,0,193.39,198.26Z"/><path class="cls-4" d="M197.52,195.85a1.7,1.7,0,0,0-1.73.12,5.39,5.39,0,0,0-2.17,3.12,1.24,1.24,0,0,0,.47.06,4.84,4.84,0,0,1,1.94-2.77,1.62,1.62,0,0,1,.79-.24.9.9,0,0,1,.46.12,1.77,1.77,0,0,1,.65,1.59,2.36,2.36,0,0,1,0,.38l.45.26a4.6,4.6,0,0,0,0-.64A2.22,2.22,0,0,0,197.52,195.85Z"/><path class="cls-2" d="M189.52,196a.4.4,0,0,0,0,.75,1.46,1.46,0,0,0,1.29,0,.4.4,0,0,0,0-.75A1.46,1.46,0,0,0,189.52,196Z"/><path class="cls-4" d="M193.65,193.62a1.68,1.68,0,0,0-1.73.12,5.39,5.39,0,0,0-2.17,3.12,1.24,1.24,0,0,0,.47.06,4.84,4.84,0,0,1,1.94-2.77,1.62,1.62,0,0,1,.79-.24.9.9,0,0,1,.46.12,1.77,1.77,0,0,1,.65,1.59,2.42,2.42,0,0,1,0,.38l.45.26a4.72,4.72,0,0,0,0-.64A2.2,2.2,0,0,0,193.65,193.62Z"/><path class="cls-2" d="M185.66,193.79a.39.39,0,0,0,0,.74,1.38,1.38,0,0,0,1.28,0,.39.39,0,0,0,0-.74A1.38,1.38,0,0,0,185.66,193.79Z"/><path class="cls-4" d="M189.78,191.38a1.7,1.7,0,0,0-1.73.12,5.46,5.46,0,0,0-2.17,3.13,1.51,1.51,0,0,0,.48.05,4.81,4.81,0,0,1,1.93-2.76,1.65,1.65,0,0,1,.79-.25,1,1,0,0,1,.46.12,1.76,1.76,0,0,1,.65,1.6,2.48,2.48,0,0,1,0,.38l.45.26a4.85,4.85,0,0,0,0-.64A2.21,2.21,0,0,0,189.78,191.38Z"/><g class="cls-25"><path d="M213,204.78a1.71,1.71,0,0,0-1.72.12,5.46,5.46,0,0,0-2.18,3.13,1.54,1.54,0,0,0,.48.06,4.83,4.83,0,0,1,1.93-2.77,1.62,1.62,0,0,1,.79-.24.9.9,0,0,1,.46.12,1.74,1.74,0,0,1,.66,1.59,2.53,2.53,0,0,1,0,.38l.45.26a3.52,3.52,0,0,0,0-.64A2.21,2.21,0,0,0,213,204.78Z"/><path d="M209.12,202.55a1.69,1.69,0,0,0-1.72.12,5.34,5.34,0,0,0-2.17,3.12,1.22,1.22,0,0,0,.47.06,4.84,4.84,0,0,1,1.94-2.77,1.59,1.59,0,0,1,.78-.24.94.94,0,0,1,.47.12,1.77,1.77,0,0,1,.65,1.59c0,.13,0,.26,0,.38l.45.26a4.58,4.58,0,0,0,0-.64A2.2,2.2,0,0,0,209.12,202.55Z"/><path d="M205.26,200.32a1.68,1.68,0,0,0-1.73.12,5.34,5.34,0,0,0-2.17,3.12,1.22,1.22,0,0,0,.47.06,4.84,4.84,0,0,1,1.94-2.77,1.59,1.59,0,0,1,.78-.24.94.94,0,0,1,.47.12,1.77,1.77,0,0,1,.65,1.59c0,.13,0,.25,0,.38l.45.26a4.68,4.68,0,0,0,0-.64A2.19,2.19,0,0,0,205.26,200.32Z"/><path d="M201.39,198.08a1.7,1.7,0,0,0-1.73.12,5.4,5.4,0,0,0-2.17,3.13,1.45,1.45,0,0,0,.47,0,4.82,4.82,0,0,1,1.94-2.76,1.61,1.61,0,0,1,.79-.25.94.94,0,0,1,.46.13,1.75,1.75,0,0,1,.65,1.59c0,.12,0,.25,0,.38l.45.26a4.72,4.72,0,0,0,.05-.64A2.23,2.23,0,0,0,201.39,198.08Z"/><path d="M197.52,195.85a1.7,1.7,0,0,0-1.73.12,5.39,5.39,0,0,0-2.17,3.12,1.24,1.24,0,0,0,.47.06,4.84,4.84,0,0,1,1.94-2.77,1.62,1.62,0,0,1,.79-.24.9.9,0,0,1,.46.12,1.77,1.77,0,0,1,.65,1.59,2.36,2.36,0,0,1,0,.38l.45.26a4.6,4.6,0,0,0,0-.64A2.22,2.22,0,0,0,197.52,195.85Z"/><path d="M193.65,193.62a1.68,1.68,0,0,0-1.73.12,5.39,5.39,0,0,0-2.17,3.12,1.24,1.24,0,0,0,.47.06,4.84,4.84,0,0,1,1.94-2.77,1.62,1.62,0,0,1,.79-.24.9.9,0,0,1,.46.12,1.77,1.77,0,0,1,.65,1.59,2.42,2.42,0,0,1,0,.38l.45.26a4.72,4.72,0,0,0,0-.64A2.2,2.2,0,0,0,193.65,193.62Z"/><path d="M189.78,191.38a1.7,1.7,0,0,0-1.73.12,5.46,5.46,0,0,0-2.17,3.13,1.51,1.51,0,0,0,.48.05,4.81,4.81,0,0,1,1.93-2.76,1.65,1.65,0,0,1,.79-.25,1,1,0,0,1,.46.12,1.76,1.76,0,0,1,.65,1.6,2.48,2.48,0,0,1,0,.38l.45.26a4.85,4.85,0,0,0,0-.64A2.21,2.21,0,0,0,189.78,191.38Z"/></g><path class="cls-14" d="M180.2,230.16c-6.81-.67-29.8-3.06-31.68-7.7-2.33-5.73-14-36.25-14-36.25s-3.23-20.88,6.84-21.74c4.35.86,8.27,3.15,9.92,10.9.86,4,5.4,20.3,9,38.33,0,0,26.43,8.17,28.38,7.5s2-2.51,3.56-4.73,2.65-5.06,3.87-4.28.46,4.43,0,6.16a4.47,4.47,0,0,0,.66,3.32s1.16-.43,2.23-.73c.58-.16,9.67-5.47,9.67-5.47s.87,5.77-1.93,8.6c-3.52,4.06-8.52,5.57-13.09,6.23C188.43,231.07,187,230.82,180.2,230.16Z"/></g><g id="Speech_Bubble" data-name="Speech Bubble"><g id="Speech_Bubble-2" data-name="Speech Bubble"><path class="cls-4" d="M120,88.19l6.8-3.93a.72.72,0,0,0,.32-.28l1.25-2.19-4-2.33.12.36Z"/><path class="cls-26" d="M120,88.19l6.8-3.93a.72.72,0,0,0,.32-.28l1.25-2.19-4-2.33.12.36Z"/><path class="cls-27" d="M124.94,79.79,120.24,88a.7.7,0,0,1-1.27-.12l-5-14.36Z"/><path class="cls-27" d="M60.87,8a7.27,7.27,0,0,1,3.29-5.7L66.84.79a7.27,7.27,0,0,1,6.58,0L144.89,42a7.27,7.27,0,0,1,3.29,5.7v31a7.27,7.27,0,0,1-3.29,5.7L142.21,86a7.27,7.27,0,0,1-6.58,0L63.85,44.54c-3-1.69-3-3.38-3-5.48Z"/><path class="cls-8" d="M148.18,78.74a7.27,7.27,0,0,1-3.29,5.7L142.21,86a7.31,7.31,0,0,1-6,.27c1.54.59,2.72-.3,2.72-2.17v-31a6.65,6.65,0,0,0-1-3.24l9.26-5.34a6.76,6.76,0,0,1,1,3.24Z"/><path class="cls-9" d="M61,7.1c.38-1.4,1.66-1.85,3.18-1l71.48,41.23A6.51,6.51,0,0,1,138,49.81l9.26-5.34A6.61,6.61,0,0,0,144.89,42L73.42.79a7.33,7.33,0,0,0-6.58,0L64.16,2.34A7.24,7.24,0,0,0,61,7.1Z"/></g></g><g id="Plus"><path class="cls-4" d="M254.66,386.2a1.89,1.89,0,0,1,1.15-1.62l5.67-3.28L257,378.69a1.89,1.89,0,0,1-1.15-1.62V363.75a1.89,1.89,0,0,1,1.15-1.62l10.53-6.08a5.54,5.54,0,0,1,2.81-.66,5.6,5.6,0,0,1,2.82.66l16.05,9.27,17.2-9.93a5.44,5.44,0,0,1,2.81-.67,5.5,5.5,0,0,1,2.82.67L325.13,363a1.89,1.89,0,0,1,1.15,1.62h0v13.32h0a1.9,1.9,0,0,1-1.15,1.61l-5.67,3.28,4.63,2.67a1.93,1.93,0,0,1,1.15,1.62h0v13.31h0a1.91,1.91,0,0,1-1.15,1.62l-10.53,6.08a6.23,6.23,0,0,1-5.62,0l-16.16-9.33-17.21,9.93a6.25,6.25,0,0,1-5.63,0l-13.13-7.58a1.91,1.91,0,0,1-1.14-1.58h0V386.25h0S254.66,386.22,254.66,386.2Z"/><path class="cls-16" d="M254.66,386.2a1.89,1.89,0,0,1,1.15-1.62l5.67-3.28L257,378.69a1.89,1.89,0,0,1-1.15-1.62V363.75a1.89,1.89,0,0,1,1.15-1.62l10.53-6.08a5.54,5.54,0,0,1,2.81-.66,5.6,5.6,0,0,1,2.82.66l16.05,9.27,17.2-9.93a5.44,5.44,0,0,1,2.81-.67,5.5,5.5,0,0,1,2.82.67L325.13,363a1.89,1.89,0,0,1,1.15,1.62h0v13.32h0a1.9,1.9,0,0,1-1.15,1.61l-5.67,3.28,4.63,2.67a1.93,1.93,0,0,1,1.15,1.62h0v13.31h0a1.91,1.91,0,0,1-1.15,1.62l-10.53,6.08a6.23,6.23,0,0,1-5.62,0l-16.16-9.33-17.21,9.93a6.25,6.25,0,0,1-5.63,0l-13.13-7.58a1.91,1.91,0,0,1-1.14-1.58h0V386.25h0S254.66,386.22,254.66,386.2Z"/><path class="cls-16" d="M275.53,382.05H260.18l1.3-.75L257,378.69a1.89,1.89,0,0,1-1.15-1.62V363.75a1.89,1.89,0,0,1,1.15-1.62l2.59-1.5h16Z"/><path class="cls-16" d="M271.73,409.38a5.49,5.49,0,0,1-2.79-.66l-13.13-7.58a1.91,1.91,0,0,1-1.14-1.58h0V386.25h0s0,0,0-.05a1.57,1.57,0,0,1,.23-.72h16.84Z"/><path class="cls-16" d="M325.13,363a1.89,1.89,0,0,1,1.15,1.62h0v13.32h0a1.9,1.9,0,0,1-1.15,1.61l-5.67,3.28H303.88V361.9h19.39Z"/><path class="cls-16" d="M310.67,408.77a5.48,5.48,0,0,1-2.73-.65l-16.16-9.33V385.48h18.89Z"/><path class="cls-4" d="M257,365.38a1.72,1.72,0,0,1,0-3.25l10.53-6.08a5.54,5.54,0,0,1,2.81-.66,5.6,5.6,0,0,1,2.82.66l16.05,9.27,17.2-9.93a5.54,5.54,0,0,1,2.81-.67,5.6,5.6,0,0,1,2.82.67L325.13,363a1.72,1.72,0,0,1,0,3.25l-17.2,9.93,16.16,9.33a1.72,1.72,0,0,1,0,3.25l-10.53,6.08a6.31,6.31,0,0,1-5.62,0l-16.16-9.33-17.21,9.93a6.33,6.33,0,0,1-5.63,0l-13.13-7.58a1.72,1.72,0,0,1,0-3.25l17.2-9.94Z"/></g><g id="Minus"><path class="cls-4" d="M182.92,335.09l-4.52-2.61a1.89,1.89,0,0,1-1.15-1.62V317.55a1.9,1.9,0,0,1,1.14-1.63l10.53-6.08a5.6,5.6,0,0,1,2.82-.66,5.54,5.54,0,0,1,2.81.66l16,9.27,30.3,17.49,4.63,2.67a1.93,1.93,0,0,1,1.15,1.62h0v13.32h0a1.9,1.9,0,0,1-1.15,1.62L235,361.91a5.46,5.46,0,0,1-2.81.67,5.65,5.65,0,0,1-2.82-.66l-16.16-9.33Z"/><path class="cls-16" d="M182.92,335.09l-4.52-2.61a1.89,1.89,0,0,1-1.15-1.62V317.55a1.9,1.9,0,0,1,1.14-1.63l10.53-6.08a5.6,5.6,0,0,1,2.82-.66,5.54,5.54,0,0,1,2.81.66l16,9.27,30.3,17.49,4.63,2.67a1.93,1.93,0,0,1,1.15,1.62h0v13.32h0a1.9,1.9,0,0,1-1.15,1.62L235,361.91a5.46,5.46,0,0,1-2.81.67,5.65,5.65,0,0,1-2.82-.66l-16.16-9.33Z"/><path class="cls-16" d="M232,346.6v15.93a5.65,5.65,0,0,1-2.61-.61l-16.15-9.33-30.3-17.5-4.52-2.61a1.89,1.89,0,0,1-1.15-1.62V317.55a1.9,1.9,0,0,1,1.14-1.63l4.87-2.81Z"/><path class="cls-4" d="M178.4,319.17a1.72,1.72,0,0,1,0-3.25l10.52-6.08a6.33,6.33,0,0,1,5.63,0l16.06,9.27,18.76,10.83,16.16,9.33a1.72,1.72,0,0,1,0,3.25L235,348.6a6.33,6.33,0,0,1-5.63,0l-16.16-9.33-18.76-10.83Z"/></g></g></g></svg>