<svg xmlns="http://www.w3.org/2000/svg" viewBox="0 0 82 82"><defs><style>.cls-1,.cls-2,.cls-3{fill:none;stroke:#2080fb;stroke-linecap:round;stroke-linejoin:round;stroke-width:2px;}.cls-2{opacity:0.75;}.cls-3{opacity:0.25;}</style></defs><g id="Layer_2" data-name="Layer 2"><g id="cloud"><circle class="cls-1" cx="41" cy="6" r="5"/><circle class="cls-1" cx="41" cy="76" r="5"/><circle class="cls-1" cx="9.18" cy="9.18" r="5"/><circle class="cls-1" cx="72.82" cy="72.82" r="5"/><circle class="cls-1" cx="9.18" cy="72.82" r="5"/><circle class="cls-1" cx="72.82" cy="9.18" r="5"/><circle class="cls-1" cx="6" cy="41" r="5"/><circle class="cls-1" cx="76" cy="41" r="5"/><path class="cls-2" d="M51.15,24.83A51.69,51.69,0,0,0,44,9.94,51.82,51.82,0,0,1,51.15,24.83Z"/><path class="cls-2" d="M55.75,48.7A69.12,69.12,0,0,0,72.24,14.12,69,69,0,0,1,55.75,48.7Z"/><path class="cls-2" d="M14.12,72.24A69.1,69.1,0,0,0,48.7,55.76,69.1,69.1,0,0,1,14.12,72.24Z"/><path class="cls-2" d="M30.85,57.17A51.57,51.57,0,0,0,38,72.06,51.57,51.57,0,0,1,30.85,57.17Z"/><path class="cls-1" d="M9.77,14.12A69.07,69.07,0,0,0,26.24,48.71,69.07,69.07,0,0,1,9.77,14.12Z"/><path class="cls-1" d="M33.3,55.76A69.11,69.11,0,0,0,67.87,72.24,69.11,69.11,0,0,1,33.3,55.76Z"/><path class="cls-2" d="M9.94,44.05a52,52,0,0,0,14.89,7.09A51.76,51.76,0,0,1,9.94,44.05Z"/><path class="cls-2" d="M57.17,51.16a52.35,52.35,0,0,0,14.89-7.11A52.35,52.35,0,0,1,57.17,51.16Z"/><path class="cls-2" d="M44,72.06a51.76,51.76,0,0,0,7.09-14.89A51.5,51.5,0,0,1,44,72.06Z"/><path class="cls-1" d="M14.12,9.77A69.09,69.09,0,0,1,48.7,26.24,69.09,69.09,0,0,0,14.12,9.77Z"/><path class="cls-1" d="M55.75,33.3A69,69,0,0,1,72.23,67.88,69,69,0,0,0,55.75,33.3Z"/><path class="cls-2" d="M72.06,38a51.82,51.82,0,0,0-14.89-7.11A51.82,51.82,0,0,1,72.06,38Z"/><path class="cls-2" d="M67.87,9.77A69.09,69.09,0,0,0,33.3,26.24,69.09,69.09,0,0,1,67.87,9.77Z"/><path class="cls-2" d="M9.77,67.88A69.09,69.09,0,0,1,26.24,33.3,69.09,69.09,0,0,0,9.77,67.88Z"/><path class="cls-2" d="M38,9.94a51.79,51.79,0,0,0-7.1,14.89A51.79,51.79,0,0,1,38,9.94Z"/><path class="cls-2" d="M24.83,30.87A51.5,51.5,0,0,0,9.94,38,51.5,51.5,0,0,1,24.83,30.87Z"/><path class="cls-3" d="M34.6,53.1a58.28,58.28,0,0,0,12.8,0A58.28,58.28,0,0,1,34.6,53.1Z"/><path class="cls-3" d="M53.1,47.4a58.28,58.28,0,0,0,0-12.8A58.28,58.28,0,0,1,53.1,47.4Z"/><path class="cls-3" d="M28.9,34.6a57.67,57.67,0,0,0,0,12.8A57.67,57.67,0,0,1,28.9,34.6Z"/><path class="cls-3" d="M47.4,28.9a58.28,58.28,0,0,0-12.8,0A58.28,58.28,0,0,1,47.4,28.9Z"/><circle class="cls-3" cx="29.67" cy="29.68" r="5"/><circle class="cls-3" cx="29.67" cy="52.33" r="5"/><circle class="cls-3" cx="52.32" cy="52.33" r="5"/><path class="cls-3" d="M57.32,29.68a5,5,0,1,1-5-5A5,5,0,0,1,57.32,29.68Z"/></g></g></svg>