<svg xmlns="http://www.w3.org/2000/svg" viewBox="0 0 515.1 403"><defs><style>.cls-1{fill:#fff;}</style></defs><title>custom databases</title><g id="Layer_2" data-name="Layer 2"><g id="Isolation_Mode" data-name="Isolation Mode"><path class="cls-1" d="M331.6,85c-47.48,0-92.19-3.64-125.89-10.25-16.76-3.28-30-7.16-39.43-11.52-4.5-2.08-18.18-8.42-18.18-20.23s13.68-18.15,18.18-20.23c9.41-4.36,22.67-8.24,39.43-11.52C239.41,4.64,284.12,1,331.6,1s92.19,3.64,125.89,10.25c16.76,3.28,30,7.16,39.43,11.52,4.5,2.08,18.18,8.42,18.18,20.23s-13.68,18.15-18.18,20.23c-9.41,4.36-22.67,8.24-39.43,11.52C423.79,81.36,379.08,85,331.6,85ZM163.12,43c.87,2.49,11.3,10.66,48.41,17.6C244,66.66,286.6,70,331.6,70s87.64-3.34,120.07-9.4c37.11-6.94,47.55-15.11,48.41-17.6-.86-2.49-11.3-10.66-48.41-17.6C419.24,19.34,376.6,16,331.6,16S244,19.34,211.53,25.4C174.42,32.34,164,40.51,163.12,43Zm337,.1h0Z"/><path class="cls-1" d="M331.6,191c-47.48,0-92.19-3.64-125.89-10.25-16.76-3.28-30-7.16-39.43-11.52-4.5-2.08-18.18-8.42-18.18-20.23a7.5,7.5,0,0,1,15-.07c.7,2.4,11,10.67,48.43,17.67C244,172.66,286.6,176,331.6,176s87.64-3.34,120.07-9.4c37.45-7,47.74-15.27,48.43-17.67a7.5,7.5,0,0,1,15,.07c0,11.81-13.68,18.15-18.18,20.23-9.41,4.36-22.67,8.24-39.43,11.52C423.79,187.36,379.08,191,331.6,191Z"/><path class="cls-1" d="M331.6,297c-47.48,0-92.19-3.64-125.89-10.25-16.76-3.28-30-7.16-39.43-11.52-4.5-2.08-18.18-8.42-18.18-20.23a7.5,7.5,0,0,1,15-.07c.7,2.4,11,10.67,48.43,17.67C244,278.66,286.6,282,331.6,282c9.32,0,18.67-.14,27.79-.43a7.5,7.5,0,0,1,.47,15C350.58,296.85,341.08,297,331.6,297Z"/><path class="cls-1" d="M331.6,403c-47.48,0-92.19-3.64-125.89-10.25-16.76-3.28-30-7.16-39.43-11.52-4.5-2.08-18.18-8.42-18.18-20.23V43.5a7.5,7.5,0,0,1,15,0V360.93c.7,2.41,11,10.67,48.43,17.67C244,384.66,286.6,388,331.6,388c16.58,0,33-.46,48.76-1.35a7.5,7.5,0,1,1,.85,15C365.16,402.54,348.47,403,331.6,403Z"/><path class="cls-1" d="M507.6,191a7.5,7.5,0,0,1-7.5-7.5V43.5a7.5,7.5,0,0,1,15,0v140A7.5,7.5,0,0,1,507.6,191Z"/><circle class="cls-1" cx="191.88" cy="130.29" r="9.25"/><circle class="cls-1" cx="229.88" cy="138.29" r="9.25"/><circle class="cls-1" cx="191.88" cy="241.29" r="9.25"/><circle class="cls-1" cx="229.88" cy="249.29" r="9.25"/><circle class="cls-1" cx="191.88" cy="342.29" r="9.25"/><circle class="cls-1" cx="229.88" cy="350.29" r="9.25"/><path class="cls-1" d="M205.71,73.75c-16.76-3.28-30-7.16-39.43-11.52-4.5-2.08-18.18-8.42-18.18-20.23s13.68-18.15,18.18-20.23c9.41-4.36,22.67-8.24,39.43-11.52C239.41,3.64,284.12,0,331.6,0s92.19,3.64,125.89,10.25c16.76,3.28,30,7.16,39.43,11.52,4.5,2.08,18.18,8.42,18.18,20.23s-13.68,18.15-18.18,20.23c-9.41,4.36-22.67,8.24-39.43,11.52C423.79,80.36,379.08,84,331.6,84S239.41,80.36,205.71,73.75Zm246-49.35C419.24,18.34,376.6,15,331.6,15S244,18.34,211.53,24.4C174.42,31.34,164,39.51,163.12,42c.87,2.49,11.3,10.66,48.41,17.6C244,65.66,286.6,69,331.6,69s87.64-3.34,120.07-9.4c37.11-6.94,47.55-15.11,48.41-17.6C499.22,39.51,488.78,31.34,451.67,24.4ZM163.08,42.1h0Z"/><path class="cls-1" d="M331.6,190c47.48,0,92.19-3.64,125.89-10.25,16.76-3.28,30-7.16,39.43-11.52,4.5-2.08,18.18-8.42,18.18-20.23a7.5,7.5,0,0,0-15-.07c-.69,2.4-11,10.67-48.43,17.67-32.43,6.06-75.07,9.4-120.07,9.4s-87.64-3.34-120.07-9.4c-37.45-7-47.73-15.27-48.43-17.67a7.5,7.5,0,0,0-15,.07c0,11.81,13.68,18.15,18.18,20.23,9.41,4.36,22.67,8.24,39.43,11.52C239.41,186.36,284.12,190,331.6,190Z"/><path class="cls-1" d="M331.6,297c47.48,0,92.19-3.64,125.89-10.25,16.76-3.28,30-7.16,39.43-11.52,4.5-2.08,18.18-8.42,18.18-20.23a7.5,7.5,0,0,0-15-.07c-.69,2.4-11,10.67-48.43,17.67-32.43,6.06-75.07,9.4-120.07,9.4-9.32,0-18.67-.14-27.79-.43a7.5,7.5,0,1,0-.47,15C312.62,296.85,322.12,297,331.6,297Z"/><path class="cls-1" d="M331.6,403c47.48,0,92.19-3.64,125.89-10.25,16.76-3.28,30-7.16,39.43-11.52,4.5-2.08,18.18-8.42,18.18-20.23V43.5a7.5,7.5,0,0,0-15,0V360.93c-.7,2.41-11,10.67-48.43,17.67-32.43,6.06-75.07,9.4-120.07,9.4-16.58,0-33-.46-48.76-1.35a7.5,7.5,0,1,0-.85,15C298,402.54,314.73,403,331.6,403Z"/><path class="cls-1" d="M155.6,190a7.5,7.5,0,0,0,7.5-7.5V42.5a7.5,7.5,0,0,0-15,0v140A7.5,7.5,0,0,0,155.6,190Z"/><path class="cls-1" d="M156.78,111.29c-6.62.2-13.36.32-20.18.32-33.5,0-65.24-2.49-89.38-7-27.63-5.17-35.39-11.25-36-13.1.65-1.85,8.41-7.94,36-13.1,24.14-4.51,55.88-7,89.38-7,6,0,11.88.09,17.7.25-.12-3.73-.2-7.45-.23-11.19-5.75-.14-11.58-.23-17.47-.23C101.25,60.24,68,63,42.88,67.87c-12.47,2.45-22.34,5.33-29.35,8.58C10.18,78,0,82.72,0,91.51S10.18,105,13.53,106.57c7,3.25,16.88,6.13,29.35,8.58,25.09,4.92,58.37,7.63,93.72,7.63,7.14,0,14.19-.13,21.12-.34Q157.24,116.86,156.78,111.29Z"/><path class="cls-1" d="M157.05,197.21c.19-2.34.39-4.69.6-7-6.9.22-13.93.34-21.05.34-33.5,0-65.24-2.49-89.38-7-27.88-5.21-35.54-11.36-36-13.15a5.59,5.59,0,0,0-11.17,0c0,8.79,10.18,13.51,13.53,15.06,7,3.25,16.88,6.13,29.35,8.58,25.09,4.91,58.37,7.62,93.72,7.62q10.22,0,20.13-.31C156.83,200,156.93,198.6,157.05,197.21Z"/><path class="cls-1" d="M154.92,269.17c-6,.17-12.18.26-18.32.26-33.5,0-65.24-2.49-89.38-7-27.88-5.22-35.54-11.37-36-13.15A5.59,5.59,0,0,0,0,249.33c0,8.79,10.18,13.51,13.53,15.06,7,3.25,16.88,6.13,29.35,8.58,25.09,4.91,58.37,7.62,93.72,7.62,6.3,0,12.61-.09,18.81-.26C155.2,276.61,155,272.89,154.92,269.17Z"/><path class="cls-1" d="M159.72,347.92c-7.6.26-15.33.41-23.12.41-33.5,0-65.24-2.48-89.38-7-27.88-5.21-35.53-11.36-36-13.14V91.88A5.59,5.59,0,0,0,0,91.88V328.23c0,8.8,10.18,13.52,13.53,15.07,7,3.24,16.88,6.13,29.35,8.57,25.09,4.92,58.37,7.63,93.72,7.63,8,0,15.89-.16,23.68-.43C160,355.38,159.8,351.64,159.72,347.92Z"/><circle class="cls-1" cx="32.59" cy="156.49" r="6.89"/><circle class="cls-1" cx="60.88" cy="162.45" r="6.89"/><circle class="cls-1" cx="32.59" cy="239.12" r="6.89"/><circle class="cls-1" cx="60.88" cy="245.08" r="6.89"/><circle class="cls-1" cx="32.59" cy="314.31" r="6.89"/><circle class="cls-1" cx="60.88" cy="320.26" r="6.89"/><path class="cls-1" d="M11.15,90.84h0Z"/><path class="cls-1" d="M5.58,200.94a5.58,5.58,0,0,0,5.59-5.58V91.14A5.59,5.59,0,1,0,0,91.14V195.36A5.58,5.58,0,0,0,5.58,200.94Z"/></g></g></svg>