<svg xmlns="http://www.w3.org/2000/svg" viewBox="0 0 82 82.04"><defs><style>.cls-1,.cls-2,.cls-3{fill:none;stroke:#2080fb;stroke-linecap:round;stroke-linejoin:round;stroke-width:2px;}.cls-2{opacity:0.75;}.cls-3{opacity:0.5;}</style></defs><g id="Layer_2" data-name="Layer 2"><g id="development"><path class="cls-1" d="M1,19.13V37.25H19.12A18.12,18.12,0,0,1,1,19.13Z"/><path class="cls-1" d="M19.12,1H1V19.13A18.12,18.12,0,0,1,19.12,1Z"/><path class="cls-1" d="M37.25,19.12V1H19.12A18.13,18.13,0,0,1,37.25,19.12Z"/><path class="cls-1" d="M19.12,37.25H37.25V19.12A18.13,18.13,0,0,1,19.12,37.25Z"/><circle class="cls-1" cx="19.13" cy="19.13" r="18.12"/><circle class="cls-2" cx="19.13" cy="19.13" r="10.62"/><circle class="cls-3" cx="19.13" cy="19.13" r="3.13"/><path class="cls-1" d="M44.75,62.91V81H62.88A18.13,18.13,0,0,1,44.75,62.91Z"/><path class="cls-1" d="M62.88,44.78H44.75V62.91A18.13,18.13,0,0,1,62.88,44.78Z"/><path class="cls-1" d="M81,62.91V44.78H62.88A18.13,18.13,0,0,1,81,62.91Z"/><path class="cls-1" d="M62.88,81H81V62.91A18.13,18.13,0,0,1,62.88,81Z"/><circle class="cls-1" cx="62.88" cy="62.91" r="18.12"/><path class="cls-2" d="M73.5,62.91A10.63,10.63,0,1,1,62.88,52.28,10.62,10.62,0,0,1,73.5,62.91Z"/><circle class="cls-3" cx="62.88" cy="62.91" r="3.13"/><rect class="cls-1" x="1" y="44.78" width="36.25" height="36.25"/><rect class="cls-2" x="6" y="49.78" width="26.25" height="26.25"/><rect class="cls-3" x="11" y="54.78" width="16.25" height="16.25"/><rect class="cls-1" x="44.75" y="1" width="36.25" height="36.25"/><rect class="cls-2" x="49.75" y="6" width="26.25" height="26.25"/><rect class="cls-3" x="54.75" y="11" width="16.25" height="16.25"/></g></g></svg>