<svg xmlns="http://www.w3.org/2000/svg" viewBox="0 0 461.86 294.39"><defs><style>.cls-1{fill:#fff;}</style></defs><title>health kit</title><g id="Layer_2" data-name="Layer 2"><g id="Layer_2-2" data-name="Layer 2"><path class="cls-1" d="M119.59,190.16H87.91a7.5,7.5,0,0,1-7.5-7.5V148.09H45.83a7.5,7.5,0,0,1-7.5-7.5V108.9a7.5,7.5,0,0,1,7.5-7.5H80.41V66.82a7.5,7.5,0,0,1,7.5-7.5h31.68a7.5,7.5,0,0,1,7.5,7.5V101.4h34.58a7.5,7.5,0,0,1,7.5,7.5v31.69a7.5,7.5,0,0,1-7.5,7.5H127.09v34.57A7.5,7.5,0,0,1,119.59,190.16Z"/><path class="cls-1" d="M349.43,81.1H217.37a7.5,7.5,0,0,1,0-15H349.43a7.5,7.5,0,0,1,0,15Z"/><path class="cls-1" d="M403.66,131.87H371.42a7.5,7.5,0,0,1,0-15h32.24a7.5,7.5,0,0,1,0,15Z"/><path class="cls-1" d="M342.46,131.87H281.94a7.5,7.5,0,0,1,0-15h60.52a7.5,7.5,0,0,1,0,15Z"/><path class="cls-1" d="M251.72,131.87H217.37a7.5,7.5,0,0,1,0-15h34.35a7.5,7.5,0,1,1,0,15Z"/><path class="cls-1" d="M404,182.63H329.11a7.5,7.5,0,0,1,0-15H404a7.5,7.5,0,0,1,0,15Z"/><path class="cls-1" d="M298.88,182.63H217.37a7.5,7.5,0,0,1,0-15h81.51a7.5,7.5,0,0,1,0,15Z"/><path class="cls-1" d="M276,233.39H217.37a7.5,7.5,0,0,1,0-15H276a7.5,7.5,0,0,1,0,15Z"/><path class="cls-1" d="M458.74,17.91a32.43,32.43,0,0,0-3.16-5.21c-.61-.81-1.26-1.59-1.94-2.34A31.52,31.52,0,0,0,430.26,0H31.6A31.61,31.61,0,0,0,0,31.6V262.79a31.63,31.63,0,0,0,31.6,31.6H430.26a31.63,31.63,0,0,0,31.6-31.6V31.6A31.4,31.4,0,0,0,458.74,17.91ZM446.86,262.79a16.61,16.61,0,0,1-16.6,16.6H31.6A16.62,16.62,0,0,1,15,262.79V31.6A16.61,16.61,0,0,1,31.6,15H430.26a16.59,16.59,0,0,1,16.6,16.6V262.79Z"/></g></g></svg>