<svg xmlns="http://www.w3.org/2000/svg" viewBox="0 0 438 485.99"><defs><style>.cls-1{fill:#fff;}</style></defs><title>iBeacon</title><g id="Layer_2" data-name="Layer 2"><g id="Layer_2-2" data-name="Layer 2"><path class="cls-1" d="M228.78,486a7.5,7.5,0,0,1-7.5-7.5V289.54a55.75,55.75,0,0,1,20-43.38,35.16,35.16,0,1,0-45.06-.37,57.45,57.45,0,0,1,20.47,43.75v189a7.5,7.5,0,0,1-15,0V289.54a42.46,42.46,0,0,0-15.18-32.32,50.15,50.15,0,1,1,64.29.53,40.79,40.79,0,0,0-14.55,31.79v189A7.5,7.5,0,0,1,228.78,486Z"/><path class="cls-1" d="M169,307.39a7.47,7.47,0,0,1-3.94-1.13A102,102,0,0,1,116.41,219a7.5,7.5,0,0,1,15,0A87.12,87.12,0,0,0,173,293.51a7.5,7.5,0,0,1-4,13.88Z"/><path class="cls-1" d="M130.31,192.15a7.61,7.61,0,0,1-2.71-.51,7.5,7.5,0,0,1-4.28-9.71,102.69,102.69,0,0,1,121.82-62.15,7.5,7.5,0,1,1-3.81,14.5A88.12,88.12,0,0,0,219,131.41a87.65,87.65,0,0,0-81.7,56A7.5,7.5,0,0,1,130.31,192.15Z"/><path class="cls-1" d="M301.83,273.21A7.5,7.5,0,0,1,295.31,262a87.63,87.63,0,0,0-30.26-117.54,7.5,7.5,0,0,1,7.9-12.75A102.63,102.63,0,0,1,308.37,269.4,7.5,7.5,0,0,1,301.83,273.21Z"/><path class="cls-1" d="M269,307.39a7.5,7.5,0,0,1-4-13.88,87.76,87.76,0,0,0,14.74-11.46,7.5,7.5,0,0,1,10.41,10.8A103,103,0,0,1,273,306.26,7.5,7.5,0,0,1,269,307.39Z"/><path class="cls-1" d="M169,371a7.51,7.51,0,0,1-2.45-.42,159.9,159.9,0,0,1-22.67-9.87,7.5,7.5,0,1,1,7-13.25,145.53,145.53,0,0,0,20.54,8.95A7.5,7.5,0,0,1,169,371Z"/><path class="cls-1" d="M105.58,329a7.47,7.47,0,0,1-5.57-2.47A160,160,0,0,1,58.65,219a7.5,7.5,0,1,1,15,0,145,145,0,0,0,37.49,97.42A7.49,7.49,0,0,1,105.58,329Z"/><path class="cls-1" d="M71.34,186.89a7.19,7.19,0,0,1-1.94-.26,7.49,7.49,0,0,1-5.31-9.18,159.9,159.9,0,0,1,70.6-94.87,7.5,7.5,0,0,1,7.9,12.75,145,145,0,0,0-64,86A7.51,7.51,0,0,1,71.34,186.89Z"/><path class="cls-1" d="M338.68,131.41a7.48,7.48,0,0,1-5.87-2.83A144.71,144.71,0,0,0,219,73.65a7.5,7.5,0,1,1,0-15,159.65,159.65,0,0,1,125.55,60.59,7.5,7.5,0,0,1-5.87,12.17Z"/><path class="cls-1" d="M357.92,290.32a7.49,7.49,0,0,1-6.81-10.63A145.83,145.83,0,0,0,356,170.28a7.5,7.5,0,0,1,14.14-5A160.91,160.91,0,0,1,364.74,286,7.51,7.51,0,0,1,357.92,290.32Z"/><path class="cls-1" d="M269,371a7.5,7.5,0,0,1-2.45-14.59A146,146,0,0,0,327,316.25a7.5,7.5,0,0,1,11.14,10,160.85,160.85,0,0,1-66.71,44.27A7.51,7.51,0,0,1,269,371Z"/><path class="cls-1" d="M105.57,405a7.5,7.5,0,0,1-4-1.17,220.44,220.44,0,0,1-74.28-79,7.5,7.5,0,1,1,13.12-7.26A205.35,205.35,0,0,0,109.6,391.2a7.5,7.5,0,0,1-4,13.83Z"/><path class="cls-1" d="M17.3,290.33a7.5,7.5,0,0,1-7.15-5.25A219.45,219.45,0,0,1,41.55,90.62a7.5,7.5,0,0,1,12.15,8.8A204.46,204.46,0,0,0,24.45,280.56,7.49,7.49,0,0,1,19.56,290,7.41,7.41,0,0,1,17.3,290.33Z"/><path class="cls-1" d="M80.71,66.48A7.5,7.5,0,0,1,75.8,53.3,219.13,219.13,0,0,1,323.39,26.44a7.5,7.5,0,1,1-7.16,13.18,204.13,204.13,0,0,0-230.62,25A7.5,7.5,0,0,1,80.71,66.48Z"/><path class="cls-1" d="M427.37,263a7,7,0,0,1-1.29-.11,7.5,7.5,0,0,1-6.11-8.68A205.8,205.8,0,0,0,423,219,203.39,203.39,0,0,0,357.43,69.16a7.5,7.5,0,1,1,10.18-11A218.45,218.45,0,0,1,438,219a220.7,220.7,0,0,1-3.25,37.79A7.5,7.5,0,0,1,427.37,263Z"/><path class="cls-1" d="M328.17,407.67a7.5,7.5,0,0,1-3.88-13.92A205.24,205.24,0,0,0,409.92,291a7.5,7.5,0,1,1,14,5.3A220.35,220.35,0,0,1,332,406.59,7.39,7.39,0,0,1,328.17,407.67Z"/></g></g></svg>