<svg xmlns="http://www.w3.org/2000/svg" viewBox="0 0 319.59 304.69"><defs><style>.cls-1{fill:#fff;}</style></defs><title>iot</title><g id="Layer_2" data-name="Layer 2"><g id="Layer_2-2" data-name="Layer 2"><path class="cls-1" d="M206.86,304.69H112.73a7.49,7.49,0,0,1-4.4-1.44L32.18,247.93a7.54,7.54,0,0,1-2.73-3.75L.37,154.66a7.48,7.48,0,0,1,0-4.63L29.45,60.51a7.5,7.5,0,0,1,2.73-3.75L108.33,1.43A7.48,7.48,0,0,1,112.73,0h94.13a7.51,7.51,0,0,1,4.41,1.43l76.15,55.33a7.48,7.48,0,0,1,2.72,3.75L319.23,150a7.48,7.48,0,0,1,0,4.63l-29.09,89.52a7.53,7.53,0,0,1-2.72,3.75l-76.15,55.32A7.52,7.52,0,0,1,206.86,304.69Zm-91.69-15h89.25l72.21-52.46,27.58-84.89L276.63,67.46,204.42,15H115.17L43,67.46,15.39,152.34,43,237.23Z"/><path class="cls-1" d="M312.09,159.84H7.5a7.5,7.5,0,0,1,0-15H312.09a7.5,7.5,0,0,1,0,15Z"/><path class="cls-1" d="M41.72,159.84A7.49,7.49,0,0,1,35,149L70.52,79A7.5,7.5,0,0,1,76,75l82.59-13.55a7.46,7.46,0,0,1,2.45,0L242.29,75a7.47,7.47,0,0,1,5.38,3.86l37.41,69.92a7.5,7.5,0,1,1-13.22,7.08L236.19,89.2l-76.4-12.73L82.17,89.2,48.42,155.74A7.52,7.52,0,0,1,41.72,159.84Z"/><path class="cls-1" d="M113.33,159.84h-.11a7.5,7.5,0,0,1-6.55-4.05l-35-67.71L33.33,69.58a7.5,7.5,0,0,1,6.51-13.51L80.46,75.66A7.48,7.48,0,0,1,83.87,79l29.71,57.51,39.66-71.26a7.51,7.51,0,0,1,6.56-3.85h0a7.5,7.5,0,0,1,6.55,3.89l38.95,71L234.37,79a7.51,7.51,0,0,1,3.51-3.4L279.83,56a7.5,7.5,0,1,1,6.35,13.59l-39.6,18.49-34.31,67.63A7.51,7.51,0,0,1,199,156L159.75,84.37,119.88,156A7.49,7.49,0,0,1,113.33,159.84Z"/><path class="cls-1" d="M241.06,89.92a7.49,7.49,0,0,1-6.82-4.39L205.22,22,165.75,73.43a7.49,7.49,0,0,1-11.9,0L114.25,21.8,84,85.63A7.5,7.5,0,0,1,70.43,79.2L106,4.29a7.49,7.49,0,0,1,12.73-1.35l41.11,53.6,41.11-53.6a7.49,7.49,0,0,1,12.77,1.45l34.2,74.91a7.51,7.51,0,0,1-6.82,10.62Z"/><path class="cls-1" d="M159.8,241.42a7.32,7.32,0,0,1-1.24-.1L77.3,227.77a7.48,7.48,0,0,1-5.38-3.86L34.51,154a7.5,7.5,0,1,1,13.22-7.07l35.68,66.67,76.4,12.74,77.61-12.73,33.76-66.54a7.5,7.5,0,1,1,13.37,6.79l-35.48,69.93a7.5,7.5,0,0,1-5.47,4L161,241.32A7.06,7.06,0,0,1,159.8,241.42Z"/><path class="cls-1" d="M36.59,247.47a7.5,7.5,0,0,1-3.18-14.3L73,214.67l34.31-67.62a7.47,7.47,0,0,1,6.56-4.1H114a7.5,7.5,0,0,1,6.57,3.89l39.26,71.58,39.86-71.62a7.5,7.5,0,0,1,13.21.2l35,67.71,38.37,18.5a7.5,7.5,0,0,1-6.52,13.51l-40.62-19.59a7.48,7.48,0,0,1-3.41-3.31L206,166.31l-39.66,71.26a7.49,7.49,0,0,1-6.55,3.85h0a7.5,7.5,0,0,1-6.55-3.89l-38.95-71-29,57.26a7.47,7.47,0,0,1-3.51,3.4L39.76,246.76A7.49,7.49,0,0,1,36.59,247.47Z"/><path class="cls-1" d="M112.74,302.79a7.92,7.92,0,0,1-.85-.05,7.49,7.49,0,0,1-6-4.34l-34.2-74.91a7.5,7.5,0,1,1,13.65-6.23l29,63.56,39.47-51.46a7.49,7.49,0,0,1,11.9,0L205.34,281l30.27-63.83a7.5,7.5,0,0,1,13.55,6.43L213.64,298.5a7.5,7.5,0,0,1-12.73,1.35l-41.11-53.6-41.11,53.6A7.49,7.49,0,0,1,112.74,302.79Z"/></g></g></svg>