<svg xmlns="http://www.w3.org/2000/svg" viewBox="0 0 486.61 480.77"><defs><style>.cls-1{fill:#fff;}</style></defs><title>thrid party api</title><g id="Layer_2" data-name="Layer 2"><g id="Layer_2-2" data-name="Layer 2"><path class="cls-1" d="M65.81,119.77A59.89,59.89,0,1,1,125.7,59.88,60,60,0,0,1,65.81,119.77ZM65.81,15A44.89,44.89,0,1,0,110.7,59.88,44.93,44.93,0,0,0,65.81,15Z"/><path class="cls-1" d="M65.81,480.77a59.89,59.89,0,1,1,59.89-59.88A59.95,59.95,0,0,1,65.81,480.77Zm0-104.77a44.89,44.89,0,1,0,44.89,44.89A44.94,44.94,0,0,0,65.81,376Z"/><path class="cls-1" d="M420.54,300.35a59.89,59.89,0,1,1,59.89-59.88A59.95,59.95,0,0,1,420.54,300.35Zm0-104.77a44.89,44.89,0,1,0,44.89,44.89A44.94,44.94,0,0,0,420.54,195.58Z"/><path class="cls-1" d="M174.73,24.57H158a7.5,7.5,0,0,1,0-15h16.76a7.5,7.5,0,0,1,0,15Z"/><path class="cls-1" d="M260.17,24.57H203.49a7.5,7.5,0,0,1,0-15h56.68a7.5,7.5,0,0,1,0,15Z"/><path class="cls-1" d="M303.17,24.57H290.4a7.5,7.5,0,0,1,0-15h12.77a7.5,7.5,0,0,1,0,15Z"/><path class="cls-1" d="M343,24.57H330.25a7.5,7.5,0,0,1,0-15H343a7.5,7.5,0,0,1,0,15Z"/><path class="cls-1" d="M343,67.55H326.26a7.5,7.5,0,0,1,0-15H343a7.5,7.5,0,0,1,0,15Z"/><path class="cls-1" d="M297.49,67.55H238.81a7.5,7.5,0,0,1,0-15h58.68a7.5,7.5,0,0,1,0,15Z"/><path class="cls-1" d="M210.59,67.55H197.82a7.5,7.5,0,0,1,0-15h12.77a7.5,7.5,0,0,1,0,15Z"/><path class="cls-1" d="M170.74,67.55H158a7.5,7.5,0,0,1,0-15h12.77a7.5,7.5,0,0,1,0,15Z"/><path class="cls-1" d="M393.66,24.57H376.9a7.5,7.5,0,0,1,0-15h16.76a7.5,7.5,0,0,1,0,15Z"/><path class="cls-1" d="M479.11,24.57H422.42a7.5,7.5,0,0,1,0-15h56.69a7.5,7.5,0,0,1,0,15Z"/><path class="cls-1" d="M260.17,387.44H203.49a7.5,7.5,0,0,1,0-15h56.68a7.5,7.5,0,0,1,0,15Z"/><path class="cls-1" d="M174.73,473.41H158a7.5,7.5,0,1,1,0-15h16.76a7.5,7.5,0,0,1,0,15Z"/><path class="cls-1" d="M260.17,473.41H203.49a7.5,7.5,0,0,1,0-15h56.68a7.5,7.5,0,0,1,0,15Z"/><path class="cls-1" d="M303.17,387.44H290.4a7.5,7.5,0,0,1,0-15h12.77a7.5,7.5,0,0,1,0,15Z"/><path class="cls-1" d="M343,387.44H330.25a7.5,7.5,0,0,1,0-15H343a7.5,7.5,0,0,1,0,15Z"/><path class="cls-1" d="M343,430.42H326.26a7.5,7.5,0,0,1,0-15H343a7.5,7.5,0,0,1,0,15Z"/><path class="cls-1" d="M297.49,430.42H238.81a7.5,7.5,0,0,1,0-15h58.68a7.5,7.5,0,0,1,0,15Z"/><path class="cls-1" d="M210.59,430.42H197.82a7.5,7.5,0,0,1,0-15h12.77a7.5,7.5,0,0,1,0,15Z"/><path class="cls-1" d="M170.74,430.42H158a7.5,7.5,0,1,1,0-15h12.77a7.5,7.5,0,1,1,0,15Z"/><path class="cls-1" d="M393.66,387.44H376.9a7.5,7.5,0,0,1,0-15h16.76a7.5,7.5,0,0,1,0,15Z"/><path class="cls-1" d="M479.11,387.44H422.42a7.5,7.5,0,0,1,0-15h56.69a7.5,7.5,0,0,1,0,15Z"/><path class="cls-1" d="M479.11,430.42H466.33a7.5,7.5,0,0,1,0-15h12.78a7.5,7.5,0,0,1,0,15Z"/><path class="cls-1" d="M439.26,430.42H376.9a7.5,7.5,0,0,1,0-15h62.36a7.5,7.5,0,0,1,0,15Z"/><path class="cls-1" d="M264,207.62H226.43a7.5,7.5,0,0,1,0-15H264a7.5,7.5,0,0,1,0,15Z"/><path class="cls-1" d="M260.17,293.59H226.43a7.5,7.5,0,0,1,0-15h33.74a7.5,7.5,0,0,1,0,15Z"/><path class="cls-1" d="M196.21,207.62H183.44a7.5,7.5,0,0,1,0-15h12.77a7.5,7.5,0,1,1,0,15Z"/><path class="cls-1" d="M156.36,207.62H143.59a7.5,7.5,0,0,1,0-15h12.77a7.5,7.5,0,0,1,0,15Z"/><path class="cls-1" d="M160.35,250.6H143.59a7.5,7.5,0,0,1,0-15h16.76a7.5,7.5,0,0,1,0,15Z"/><path class="cls-1" d="M247.79,250.6H189.11a7.5,7.5,0,0,1,0-15h58.68a7.5,7.5,0,0,1,0,15Z"/><path class="cls-1" d="M288.79,250.6H276a7.5,7.5,0,0,1,0-15h12.77a7.5,7.5,0,0,1,0,15Z"/><path class="cls-1" d="M328.64,250.6H315.87a7.5,7.5,0,0,1,0-15h12.77a7.5,7.5,0,0,1,0,15Z"/><path class="cls-1" d="M109.71,207.62H93a7.5,7.5,0,1,1,0-15h16.76a7.5,7.5,0,0,1,0,15Z"/><path class="cls-1" d="M64.18,207.62H7.5a7.5,7.5,0,0,1,0-15H64.18a7.5,7.5,0,0,1,0,15Z"/><path class="cls-1" d="M20.27,250.6H7.5a7.5,7.5,0,0,1,0-15H20.27a7.5,7.5,0,1,1,0,15Z"/><path class="cls-1" d="M109.71,250.6H47.35a7.5,7.5,0,1,1,0-15h62.36a7.5,7.5,0,1,1,0,15Z"/><path class="cls-1" d="M112.52,404.64a7.5,7.5,0,0,1-3.41-14.19L370.44,257.53a7.5,7.5,0,1,1,6.8,13.37L115.91,403.82A7.52,7.52,0,0,1,112.52,404.64Z"/><path class="cls-1" d="M373.84,224.21a7.51,7.51,0,0,1-3.39-.81L110.31,91.06a7.5,7.5,0,1,1,6.8-13.37L377.25,210a7.5,7.5,0,0,1-3.41,14.18Z"/><path class="cls-1" d="M54.38,83.26a7.47,7.47,0,0,1-5.3-2.19L33.39,65.38a7.51,7.51,0,0,1,0-10.6L49.47,38.7A7.5,7.5,0,0,1,60.08,49.31L49.3,60.08,59.68,70.46a7.5,7.5,0,0,1-5.3,12.8Z"/><path class="cls-1" d="M77.25,83.26a7.5,7.5,0,0,1-5.31-12.8L82.32,60.08,71.55,49.31A7.5,7.5,0,1,1,82.16,38.7L98.23,54.78a7.49,7.49,0,0,1,0,10.6L82.55,81.07A7.49,7.49,0,0,1,77.25,83.26Z"/><path class="cls-1" d="M409.11,263.85a7.48,7.48,0,0,1-5.3-2.2L388.12,246a7.52,7.52,0,0,1,0-10.61l16.08-16.08a7.5,7.5,0,0,1,10.61,10.61L404,240.66,414.41,251a7.51,7.51,0,0,1-5.3,12.81Z"/><path class="cls-1" d="M432,263.85A7.51,7.51,0,0,1,426.67,251l10.38-10.38-10.77-10.77a7.5,7.5,0,1,1,10.61-10.61L453,235.36A7.5,7.5,0,0,1,453,246l-15.68,15.68A7.48,7.48,0,0,1,432,263.85Z"/><path class="cls-1" d="M54.38,444.27a7.48,7.48,0,0,1-5.3-2.2L33.39,426.39a7.5,7.5,0,0,1,0-10.61L49.47,399.7a7.5,7.5,0,0,1,10.61,10.61L49.3,421.08l10.38,10.38a7.51,7.51,0,0,1-5.3,12.81Z"/><path class="cls-1" d="M77.25,444.27a7.51,7.51,0,0,1-5.31-12.81l10.38-10.38L71.55,410.31A7.5,7.5,0,1,1,82.16,399.7l16.07,16.08a7.49,7.49,0,0,1,0,10.6L82.55,442.07A7.5,7.5,0,0,1,77.25,444.27Z"/></g></g></svg>